<?xml version="1.0" encoding="UTF-8"?>
<svg id="katman_1" xmlns="http://www.w3.org/2000/svg" version="1.1" viewBox="0 0 400 400">
  <!-- Generator: Adobe Illustrator 30.1.0, SVG Export Plug-In . SVG Version: 2.1.1 Build 136)  -->
  <defs>
    <style>
      .st0 {
        fill: #132137;
      }
    </style>
  </defs>
  <g>
    <path class="st0" d="M108.47,293.09c-1.97,0-3.79-.32-5.44-.97-1.66-.65-3.09-1.56-4.31-2.74-1.22-1.18-2.17-2.56-2.85-4.15-.68-1.58-1.02-3.32-1.02-5.23s.34-3.64,1.02-5.23c.68-1.58,1.64-2.97,2.87-4.15,1.23-1.18,2.67-2.09,4.33-2.74,1.66-.64,3.48-.97,5.48-.97s3.87.33,5.55.99,3.11,1.64,4.28,2.96l-2.27,2.27c-1.05-1.02-2.19-1.77-3.42-2.25-1.23-.47-2.56-.71-4-.71s-2.82.24-4.07.73c-1.25.49-2.34,1.17-3.25,2.05-.91.88-1.62,1.92-2.12,3.12-.5,1.21-.75,2.52-.75,3.93s.25,2.69.75,3.89c.5,1.21,1.21,2.25,2.12,3.14.91.89,1.99,1.58,3.23,2.06,1.24.49,2.59.73,4.06.73,1.36,0,2.67-.21,3.93-.64,1.25-.43,2.42-1.14,3.49-2.14l2.08,2.78c-1.27,1.07-2.75,1.88-4.44,2.43-1.69.55-3.44.82-5.24.82ZM118.15,289.84l-3.51-.47v-9.5h3.51v9.98Z"/>
    <path class="st0" d="M143.4,292.8v-25.58h9.98c3.31,0,5.92.79,7.82,2.36s2.85,3.76,2.85,6.56c0,1.85-.43,3.44-1.28,4.77-.85,1.33-2.07,2.34-3.65,3.05-1.58.71-3.5,1.06-5.74,1.06h-7.97l1.64-1.68v9.46h-3.65ZM147.05,283.7l-1.64-1.79h7.86c2.34,0,4.11-.51,5.32-1.52,1.21-1.01,1.81-2.43,1.81-4.26s-.6-3.24-1.81-4.24c-1.21-1-2.98-1.5-5.32-1.5h-7.86l1.64-1.83v15.13ZM160.5,292.8l-6.5-9.28h3.91l6.58,9.28h-3.98Z"/>
    <path class="st0" d="M199.78,293.09c-1.95,0-3.76-.33-5.43-.99-1.67-.66-3.11-1.58-4.33-2.76-1.22-1.18-2.17-2.56-2.85-4.15-.68-1.58-1.02-3.31-1.02-5.19s.34-3.61,1.02-5.19c.68-1.58,1.63-2.97,2.85-4.15,1.22-1.18,2.65-2.1,4.31-2.76,1.66-.66,3.47-.99,5.44-.99s3.75.32,5.39.97c1.64.65,3.08,1.56,4.31,2.74,1.23,1.18,2.18,2.56,2.85,4.15.67,1.58,1,3.32,1,5.23s-.34,3.64-1,5.23c-.67,1.58-1.62,2.97-2.85,4.15-1.23,1.18-2.67,2.1-4.31,2.74-1.64.65-3.44.97-5.39.97ZM199.78,289.84c1.41,0,2.72-.24,3.93-.73,1.21-.49,2.25-1.17,3.14-2.06.89-.89,1.58-1.93,2.08-3.12.5-1.19.75-2.5.75-3.91s-.25-2.72-.75-3.91c-.5-1.19-1.19-2.23-2.08-3.12-.89-.89-1.94-1.58-3.14-2.06-1.21-.49-2.52-.73-3.93-.73s-2.76.24-3.96.73c-1.21.49-2.26,1.18-3.16,2.06-.9.89-1.6,1.93-2.1,3.12-.5,1.19-.75,2.5-.75,3.91s.25,2.72.75,3.91c.5,1.19,1.2,2.24,2.1,3.12.9.89,1.95,1.58,3.16,2.06,1.21.49,2.53.73,3.96.73Z"/>
    <path class="st0" d="M247.79,293.09c-3.36,0-6-.96-7.93-2.89-1.92-1.92-2.89-4.74-2.89-8.44v-14.54h3.65v14.4c0,2.85.63,4.93,1.88,6.25,1.25,1.32,3.03,1.97,5.32,1.97s4.1-.66,5.35-1.97c1.25-1.32,1.88-3.4,1.88-6.25v-14.4h3.54v14.54c0,3.7-.96,6.52-2.87,8.44-1.91,1.92-4.56,2.89-7.95,2.89Z"/>
    <path class="st0" d="M284.37,292.8v-25.58h9.97c2.24,0,4.15.35,5.74,1.06s2.8,1.73,3.65,3.07c.85,1.34,1.28,2.94,1.28,4.79s-.43,3.44-1.28,4.77c-.85,1.33-2.07,2.35-3.65,3.07s-3.5,1.08-5.74,1.08h-7.97l1.64-1.72v9.46h-3.65ZM288.02,283.7l-1.64-1.83h7.86c2.34,0,4.11-.5,5.32-1.5,1.21-1,1.81-2.41,1.81-4.24s-.6-3.24-1.81-4.24c-1.21-1-2.98-1.5-5.32-1.5h-7.86l1.64-1.83v15.13Z"/>
  </g>
  <g>
    <polygon class="st0" points="356.05 205.37 356.05 356.05 43.95 356.05 43.95 43.95 356.05 43.95 356.05 90.68 383.97 90.68 383.97 16.03 16.03 16.03 16.03 383.97 383.97 383.97 383.97 205.37 356.05 205.37"/>
    <g>
      <polyline class="st0" points="322.92 156.31 288.27 94.74 261.14 94.74 261.14 201.31 288.76 201.31 288.76 146.35 315.76 190.81 329.04 190.81 356.05 145.08 356.05 201.31 356.51 201.31 356.51 201.31 383.97 201.31 383.97 201.31 383.97 201.31 383.97 94.74 356.05 94.74"/>
      <path class="st0" d="M140.13,146.43c-.63-.26-1.28-.5-1.93-.73,4.19-2.26,7.53-5.16,10-8.71,2.87-4.11,4.3-8.91,4.3-14.39,0-8.32-3.42-15.05-10.26-20.17-6.84-5.12-17.2-7.69-31.08-7.69h-54.02v106.57h57.04c14.18,0,24.97-2.56,32.37-7.69,7.39-5.12,11.09-12.31,11.09-21.54,0-6.19-1.53-11.44-4.6-15.76-3.07-4.31-7.37-7.61-12.9-9.9ZM86.71,116.51h20.52c5.03,0,8.8.84,11.32,2.51,2.51,1.67,3.77,4.24,3.77,7.69s-1.26,6.04-3.77,7.76c-2.52,1.73-6.29,2.59-11.32,2.59h-20.52v-20.55ZM123.46,176.88c-2.67,1.78-6.56,2.66-11.69,2.66h-25.05v-21.62h25.05c5.13,0,9.03.89,11.69,2.66,2.66,1.78,4,4.49,4,8.15s-1.33,6.37-4,8.15Z"/>
      <polygon class="st0" points="158.39 118.64 190.83 118.64 190.83 201.31 220.7 201.31 220.7 118.64 253 118.64 253 94.74 158.39 94.74 158.39 118.64"/>
    </g>
  </g>
</svg>