<?xml version="1.0" encoding="UTF-8"?>
<svg id="Layer_1" xmlns="http://www.w3.org/2000/svg" version="1.1" viewBox="0 0 2065.46 970.41">
  <!-- Generator: Adobe Illustrator 30.1.0, SVG Export Plug-In . SVG Version: 2.1.1 Build 136)  -->
  <defs>
    <style>
      .st0 {
        fill: #062038;
      }

      .st1 {
        isolation: isolate;
      }
    </style>
  </defs>
  <g>
    <polyline class="st0" points="902.63 497.97 861.14 424.22 828.64 424.22 828.64 551.86 861.71 551.86 861.71 486.04 894.06 539.28 909.96 539.28 942.31 484.52 942.31 551.86 942.85 551.86 942.85 551.86 975.74 551.86 975.74 551.86 975.74 551.86 975.74 424.22 942.31 424.22"/>
    <path class="st0" d="M683.71,486.13c-.76-.31-1.53-.6-2.31-.88,5.02-2.71,9.02-6.18,11.98-10.43,3.43-4.92,5.15-10.67,5.15-17.23,0-9.97-4.1-18.02-12.29-24.16s-20.6-9.21-37.23-9.21h-64.7v127.64h68.31c16.99,0,29.91-3.07,38.76-9.21,8.86-6.14,13.28-14.74,13.28-25.8,0-7.41-1.84-13.7-5.51-18.87-3.68-5.17-8.83-9.12-15.45-11.85h0ZM619.73,450.3h24.58c6.02,0,10.54,1,13.55,3.01s4.52,5.08,4.52,9.21-1.51,7.23-4.52,9.3c-3.01,2.07-7.53,3.1-13.55,3.1h-24.58v-24.62ZM663.74,522.6c-3.19,2.13-7.86,3.19-14.01,3.19h-30v-25.89h30c6.14,0,10.81,1.07,14.01,3.19,3.19,2.13,4.79,5.38,4.79,9.76s-1.6,7.63-4.79,9.76h0Z"/>
    <polygon class="st0" points="705.57 452.85 744.43 452.85 744.43 551.86 780.21 551.86 780.21 452.85 818.88 452.85 818.88 424.22 705.57 424.22 705.57 452.85"/>
  </g>
  <g class="st1">
    <g class="st1">
      <g class="st1">
        <g class="st1">
          <path class="st0" d="M1011.94,551.86v-126.72h56.84c14.6,0,25.82,2.93,33.67,8.78,7.84,5.85,11.77,13.85,11.77,23.99,0,6.88-1.54,12.67-4.62,17.38s-7.21,8.33-12.4,10.86c-5.19,2.53-10.8,3.8-16.83,3.8l3.26-5.43c7.24,0,13.64,1.27,19.19,3.8,5.55,2.53,9.96,6.25,13.21,11.13,3.26,4.89,4.89,10.95,4.89,18.19,0,10.86-4.07,19.28-12.22,25.25s-20.25,8.96-36.29,8.96h-60.47ZM1030.04,537.2h41.63c10.02,0,17.68-1.69,22.99-5.07,5.31-3.38,7.96-8.69,7.96-15.93s-2.66-12.73-7.96-16.11c-5.31-3.38-12.97-5.07-22.99-5.07h-43.26v-14.66h38.74c9.17,0,16.29-1.69,21.36-5.07s7.6-8.45,7.6-15.21-2.53-11.83-7.6-15.21-12.19-5.07-21.36-5.07h-37.11v97.39h0Z"/>
          <path class="st0" d="M1210.52,553.31c-9.66,0-18.62-1.63-26.88-4.89-8.27-3.26-15.42-7.81-21.45-13.67-6.04-5.85-10.74-12.7-14.12-20.55-3.38-7.84-5.07-16.41-5.07-25.71s1.69-17.86,5.07-25.71c3.38-7.84,8.08-14.69,14.12-20.55,6.03-5.85,13.15-10.41,21.36-13.67s17.2-4.89,26.97-4.89,18.55,1.6,26.7,4.8c8.15,3.2,15.26,7.72,21.36,13.58,6.09,5.85,10.8,12.7,14.12,20.55,3.32,7.85,4.98,16.47,4.98,25.89s-1.66,18.04-4.98,25.89c-3.32,7.85-8.03,14.69-14.12,20.55-6.1,5.85-13.21,10.38-21.36,13.58s-17.05,4.8-26.7,4.8ZM1210.52,537.2c7,0,13.49-1.2,19.46-3.62,5.97-2.41,11.16-5.82,15.57-10.23,4.4-4.4,7.84-9.56,10.32-15.48,2.47-5.91,3.71-12.37,3.71-19.37s-1.24-13.46-3.71-19.37-5.91-11.07-10.32-15.48c-4.41-4.4-9.59-7.81-15.57-10.23-5.97-2.41-12.46-3.62-19.46-3.62s-13.67,1.21-19.64,3.62c-5.97,2.42-11.2,5.82-15.66,10.23-4.47,4.41-7.94,9.57-10.41,15.48-2.47,5.91-3.71,12.37-3.71,19.37s1.24,13.46,3.71,19.37,5.94,11.07,10.41,15.48c4.46,4.41,9.68,7.82,15.66,10.23,5.97,2.42,12.52,3.62,19.64,3.62Z"/>
          <path class="st0" d="M1334.88,551.86v-48.51l4.16,11.22-54.49-89.43h19.37l45.8,75.49h-10.5l45.98-75.49h17.92l-54.31,89.43,3.98-11.22v48.51h-17.92.01Z"/>
          <path class="st0" d="M1397.51,551.86l57.38-126.72h17.92l57.57,126.72h-19.01l-51.23-116.58h7.24l-51.23,116.58h-18.65.01ZM1421.95,520.18l4.89-14.48h71.32l5.25,14.48h-81.46Z"/>
        </g>
      </g>
    </g>
  </g>
  <polygon class="st0" points="942.65 565.41 942.65 672.45 572.63 672.45 572.63 302.43 942.65 302.43 942.65 409.48 975.74 409.48 975.74 269.34 539.54 269.34 539.54 705.54 975.74 705.54 975.74 565.41 942.65 565.41"/>
</svg>