<?xml version="1.0" encoding="UTF-8"?>
<svg id="Layer_1" xmlns="http://www.w3.org/2000/svg" version="1.1" viewBox="0 0 2065.46 970.41">
  <!-- Generator: Adobe Illustrator 30.1.0, SVG Export Plug-In . SVG Version: 2.1.1 Build 136)  -->
  <defs>
    <style>
      .st0 {
        fill: #062038;
      }

      .st1 {
        isolation: isolate;
      }
    </style>
  </defs>
  <g>
    <polyline class="st0" points="806 496.48 764.51 422.73 732.01 422.73 732.01 550.38 765.09 550.38 765.09 484.54 797.43 537.79 813.34 537.79 845.69 483.02 845.69 550.38 846.23 550.38 846.23 550.38 879.12 550.38 879.12 550.38 879.12 550.38 879.12 422.73 845.69 422.73"/>
    <path class="st0" d="M587.09,484.63c-.76-.31-1.53-.6-2.31-.88,5.02-2.71,9.02-6.18,11.98-10.43,3.43-4.92,5.15-10.67,5.15-17.23,0-9.97-4.1-18.02-12.29-24.16s-20.6-9.21-37.23-9.21h-64.7v127.64h68.31c16.99,0,29.91-3.07,38.76-9.21,8.86-6.14,13.28-14.74,13.28-25.8,0-7.41-1.84-13.7-5.51-18.87-3.68-5.17-8.83-9.12-15.45-11.85h0ZM523.11,448.8h24.58c6.02,0,10.54,1,13.55,3.01s4.52,5.08,4.52,9.21-1.51,7.23-4.52,9.3c-3.01,2.07-7.53,3.1-13.55,3.1h-24.58v-24.62ZM567.11,521.1c-3.19,2.13-7.86,3.19-14.01,3.19h-30v-25.89h30c6.14,0,10.81,1.07,14.01,3.19,3.19,2.13,4.79,5.38,4.79,9.76s-1.6,7.63-4.79,9.76h0Z"/>
    <polygon class="st0" points="608.96 451.36 647.8 451.36 647.8 550.38 683.59 550.38 683.59 451.36 722.26 451.36 722.26 422.73 608.96 422.73 608.96 451.36"/>
  </g>
  <g class="st1">
    <g class="st1">
      <g class="st1">
        <g class="st1">
          <path class="st0" d="M911.24,551.87l57.38-126.72h17.92l57.57,126.72h-19.01l-51.23-116.58h7.24l-51.23,116.58h-18.65.01ZM935.68,520.18l4.89-14.48h71.32l5.25,14.48h-81.46Z"/>
          <path class="st0" d="M1067.29,551.87v-126.72h89.42v15.75h-71.32v110.97h-18.1ZM1083.57,500.63v-15.57h65.35v15.57h-65.35Z"/>
          <path class="st0" d="M1186.57,551.87v-126.72h49.42c16.41,0,29.33,3.89,38.74,11.68,9.41,7.78,14.12,18.62,14.12,32.49,0,9.17-2.11,17.05-6.33,23.62-4.23,6.58-10.26,11.62-18.1,15.12-7.85,3.5-17.32,5.25-28.42,5.25h-39.46l8.15-8.33v46.88h-18.12ZM1204.68,506.79l-8.15-8.87h38.92c11.59,0,20.37-2.5,26.34-7.51s8.96-12.04,8.96-21.09-2.99-16.05-8.96-21-14.75-7.42-26.34-7.42h-38.92l8.15-9.05v74.94ZM1271.3,551.87l-32.22-45.98h19.37l32.58,45.98h-19.73Z"/>
          <path class="st0" d="M1322.51,551.87v-126.72h18.1v126.72h-18.1Z"/>
          <path class="st0" d="M1439.65,553.31c-9.66,0-18.55-1.6-26.7-4.8-8.15-3.2-15.21-7.72-21.18-13.58-5.97-5.85-10.65-12.7-14.03-20.55-3.38-7.84-5.07-16.47-5.07-25.89s1.69-18.04,5.07-25.89c3.38-7.84,8.08-14.69,14.12-20.55,6.03-5.85,13.12-10.38,21.27-13.58,8.15-3.2,17.04-4.8,26.7-4.8s18.79,1.66,27.06,4.98c8.26,3.32,15.3,8.24,21.09,14.75l-11.77,11.4c-4.83-5.07-10.26-8.84-16.29-11.31-6.04-2.47-12.49-3.71-19.37-3.71s-13.73,1.21-19.82,3.62c-6.09,2.42-11.38,5.79-15.84,10.14-4.47,4.34-7.94,9.5-10.41,15.48-2.47,5.97-3.71,12.46-3.71,19.46s1.24,13.49,3.71,19.46,5.94,11.13,10.41,15.48c4.46,4.34,9.74,7.72,15.84,10.14,6.09,2.42,12.7,3.62,19.82,3.62s13.33-1.24,19.37-3.71c6.03-2.47,11.46-6.3,16.29-11.5l11.77,11.4c-5.79,6.52-12.82,11.47-21.09,14.84-8.27,3.38-17.35,5.07-27.24,5.07v.03h0Z"/>
          <path class="st0" d="M1494.12,551.87l57.38-126.72h17.92l57.57,126.72h-19.01l-51.23-116.58h7.24l-51.23,116.58h-18.64ZM1518.56,520.18l4.89-14.48h71.32l5.25,14.48h-81.46Z"/>
        </g>
      </g>
    </g>
  </g>
  <polygon class="st0" points="846.03 564.52 846.03 671.56 476.01 671.56 476.01 301.54 846.03 301.54 846.03 408.59 879.12 408.59 879.12 268.45 442.92 268.45 442.92 704.65 879.12 704.65 879.12 564.52 846.03 564.52"/>
</svg>