<?xml version="1.0" encoding="UTF-8"?>
<svg id="Layer_1" xmlns="http://www.w3.org/2000/svg" version="1.1" viewBox="0 0 2065.46 970.41">
  <!-- Generator: Adobe Illustrator 30.1.0, SVG Export Plug-In . SVG Version: 2.1.1 Build 136)  -->
  <defs>
    <style>
      .st0 {
        fill: #062038;
      }

      .st1 {
        isolation: isolate;
      }
    </style>
  </defs>
  <g>
    <polyline class="st0" points="891.94 497.97 850.45 424.22 817.96 424.22 817.96 551.86 851.03 551.86 851.03 486.03 883.38 539.28 899.28 539.28 931.63 484.51 931.63 551.86 932.17 551.86 932.17 551.86 965.06 551.86 965.06 551.86 965.06 551.86 965.06 424.22 931.63 424.22"/>
    <path class="st0" d="M673.03,486.13c-.76-.31-1.53-.6-2.31-.88,5.02-2.71,9.02-6.18,11.98-10.43,3.43-4.92,5.15-10.67,5.15-17.23,0-9.97-4.1-18.02-12.29-24.16s-20.6-9.21-37.23-9.21h-64.7v127.64h68.31c16.99,0,29.91-3.07,38.76-9.21,8.86-6.14,13.28-14.74,13.28-25.8,0-7.41-1.84-13.7-5.51-18.87-3.68-5.17-8.83-9.12-15.45-11.85h0ZM609.05,450.3h24.58c6.02,0,10.54,1,13.55,3.01s4.52,5.08,4.52,9.21-1.51,7.23-4.52,9.3c-3.01,2.07-7.53,3.1-13.55,3.1h-24.58v-24.62ZM653.06,522.59c-3.19,2.13-7.86,3.19-14.01,3.19h-30v-25.89h30c6.14,0,10.81,1.07,14.01,3.19,3.19,2.13,4.79,5.38,4.79,9.76s-1.6,7.63-4.79,9.76h0Z"/>
    <polygon class="st0" points="694.89 452.85 733.74 452.85 733.74 551.86 769.53 551.86 769.53 452.85 808.2 452.85 808.2 424.22 694.89 424.22 694.89 452.85"/>
  </g>
  <g class="st1">
    <g class="st1">
      <g class="st1">
        <g class="st1">
          <path class="st0" d="M1001.26,551.86v-126.72h56.84c14.6,0,25.82,2.93,33.67,8.78,7.84,5.85,11.77,13.85,11.77,23.99,0,6.88-1.54,12.67-4.62,17.38s-7.21,8.33-12.4,10.86c-5.19,2.53-10.8,3.8-16.83,3.8l3.26-5.43c7.24,0,13.64,1.27,19.19,3.8,5.55,2.53,9.96,6.25,13.21,11.13s4.89,10.95,4.89,18.19c0,10.86-4.07,19.28-12.22,25.25s-20.25,8.96-36.29,8.96h-60.47ZM1019.36,537.2h41.63c10.02,0,17.68-1.69,22.99-5.07,5.31-3.38,7.96-8.69,7.96-15.93s-2.66-12.73-7.96-16.11c-5.31-3.38-12.97-5.07-22.99-5.07h-43.26v-14.66h38.74c9.17,0,16.29-1.69,21.36-5.07s7.6-8.45,7.6-15.21-2.53-11.83-7.6-15.21-12.19-5.07-21.36-5.07h-37.11v97.39h0Z"/>
          <path class="st0" d="M1199.84,553.31c-9.66,0-18.62-1.63-26.88-4.89-8.27-3.26-15.42-7.81-21.45-13.67-6.04-5.85-10.74-12.7-14.12-20.55-3.38-7.84-5.07-16.41-5.07-25.71s1.69-17.86,5.07-25.71c3.38-7.84,8.08-14.69,14.12-20.55,6.03-5.85,13.15-10.41,21.36-13.67s17.2-4.89,26.97-4.89,18.55,1.6,26.7,4.8c8.15,3.2,15.26,7.72,21.36,13.58,6.09,5.85,10.8,12.7,14.12,20.55,3.32,7.85,4.98,16.47,4.98,25.89s-1.66,18.04-4.98,25.89c-3.32,7.85-8.03,14.69-14.12,20.55-6.1,5.85-13.21,10.38-21.36,13.58s-17.05,4.8-26.7,4.8ZM1199.84,537.2c7,0,13.49-1.21,19.46-3.62s11.16-5.82,15.57-10.23,7.84-9.56,10.32-15.48c2.47-5.91,3.71-12.37,3.71-19.37s-1.24-13.46-3.71-19.37-5.91-11.07-10.32-15.48c-4.41-4.4-9.59-7.81-15.57-10.23-5.97-2.41-12.46-3.62-19.46-3.62s-13.67,1.21-19.64,3.62c-5.97,2.42-11.2,5.82-15.66,10.23-4.47,4.41-7.94,9.57-10.41,15.48-2.47,5.91-3.71,12.37-3.71,19.37s1.24,13.46,3.71,19.37,5.94,11.07,10.41,15.48c4.46,4.41,9.68,7.82,15.66,10.23,5.97,2.42,12.52,3.62,19.64,3.62Z"/>
          <path class="st0" d="M1299.04,551.86v-126.72h49.42c16.41,0,29.33,3.89,38.74,11.68s14.12,18.62,14.12,32.49c0,9.17-2.11,17.05-6.34,23.62-4.23,6.58-10.26,11.62-18.1,15.12-7.85,3.5-17.32,5.25-28.42,5.25h-39.46l8.15-8.33v46.88h-18.11ZM1317.14,506.78l-8.15-8.87h38.92c11.58,0,20.36-2.5,26.34-7.51,5.97-5.01,8.96-12.04,8.96-21.09s-2.99-16.05-8.96-21-14.75-7.42-26.34-7.42h-38.92l8.15-9.05v74.94ZM1383.75,551.86l-32.22-45.98h19.37l32.58,45.98h-19.73Z"/>
          <path class="st0" d="M1487.48,553.31c-16.65,0-29.75-4.77-39.28-14.3-9.54-9.53-14.3-23.47-14.3-41.82v-72.05h18.1v71.32c0,14.12,3.11,24.44,9.32,30.96s14.99,9.78,26.34,9.78,20.3-3.26,26.52-9.78c6.21-6.52,9.32-16.83,9.32-30.96v-71.32h17.56v72.05c0,18.35-4.74,32.28-14.21,41.82-9.48,9.53-22.6,14.3-39.37,14.3h0Z"/>
        </g>
      </g>
    </g>
  </g>
  <polygon class="st0" points="931.97 565.4 931.97 672.44 561.95 672.44 561.95 302.42 931.97 302.42 931.97 409.47 965.06 409.47 965.06 269.33 528.86 269.33 528.86 705.53 965.06 705.53 965.06 565.4 931.97 565.4"/>
</svg>