<?xml version="1.0" encoding="UTF-8"?>
<svg id="Layer_1" xmlns="http://www.w3.org/2000/svg" version="1.1" viewBox="0 0 2054.19 970.41">
  <!-- Generator: Adobe Illustrator 30.1.0, SVG Export Plug-In . SVG Version: 2.1.1 Build 136)  -->
  <defs>
    <style>
      .st0 {
        fill: #062038;
      }

      .st1 {
        isolation: isolate;
      }
    </style>
  </defs>
  <polygon class="st0" points="861.5 618.52 861.5 672.11 487.7 672.11 487.7 298.3 861.5 298.3 861.5 357.56 894.93 357.56 894.93 264.87 454.27 264.87 454.27 705.53 894.93 705.53 894.93 618.52 861.5 618.52"/>
  <g>
    <polyline class="st0" points="821.81 497.97 780.33 424.22 747.83 424.22 747.83 551.86 780.9 551.86 780.9 486.03 813.25 539.28 829.15 539.28 861.5 484.51 861.5 551.86 862.04 551.86 862.04 551.86 894.93 551.86 894.93 551.86 894.93 551.86 894.93 424.22 861.5 424.22"/>
    <path class="st0" d="M602.9,486.13c-.76-.31-1.53-.6-2.31-.88,5.02-2.71,9.02-6.18,11.98-10.43,3.43-4.92,5.15-10.67,5.15-17.23,0-9.97-4.1-18.02-12.29-24.16s-20.6-9.21-37.23-9.21h-64.7v127.64h68.31c16.99,0,29.91-3.07,38.76-9.21,8.86-6.14,13.28-14.74,13.28-25.8,0-7.41-1.84-13.7-5.51-18.87-3.68-5.17-8.83-9.12-15.45-11.85h0ZM538.92,450.3h24.58c6.02,0,10.54,1,13.55,3.01s4.52,5.08,4.52,9.21-1.51,7.23-4.52,9.3c-3.01,2.07-7.53,3.1-13.55,3.1h-24.58v-24.62ZM582.93,522.59c-3.19,2.13-7.86,3.19-14.01,3.19h-30v-25.89h30c6.14,0,10.81,1.07,14.01,3.19,3.19,2.13,4.79,5.38,4.79,9.76s-1.6,7.63-4.79,9.76h0Z"/>
    <polygon class="st0" points="624.76 452.85 663.62 452.85 663.62 551.86 699.4 551.86 699.4 452.85 738.07 452.85 738.07 424.22 624.76 424.22 624.76 452.85"/>
  </g>
  <g class="st1">
    <g class="st1">
      <g class="st1">
        <g class="st1">
          <path class="st0" d="M996.23,553.31c-9.78,0-18.77-1.6-26.97-4.8-8.21-3.2-15.33-7.72-21.36-13.58-6.04-5.85-10.74-12.7-14.12-20.55-3.38-7.84-5.07-16.47-5.07-25.89s1.69-18.04,5.07-25.89c3.38-7.84,8.11-14.69,14.21-20.55,6.09-5.85,13.24-10.38,21.45-13.58,8.21-3.2,17.26-4.8,27.15-4.8s19.19,1.63,27.52,4.89c8.33,3.26,15.39,8.15,21.18,14.66l-11.22,11.22c-5.19-5.07-10.83-8.78-16.93-11.13s-12.7-3.53-19.82-3.53-13.97,1.21-20.18,3.62c-6.22,2.42-11.59,5.79-16.11,10.14-4.53,4.34-8.03,9.5-10.5,15.48-2.47,5.97-3.71,12.46-3.71,19.46s1.24,13.3,3.71,19.28c2.47,5.97,5.97,11.16,10.5,15.57s9.87,7.82,16.02,10.23c6.16,2.42,12.85,3.62,20.09,3.62,6.76,0,13.24-1.05,19.46-3.17,6.21-2.11,11.98-5.64,17.29-10.59l10.32,13.76c-6.28,5.31-13.61,9.32-21.99,12.04-8.39,2.72-17.05,4.07-25.98,4.07v.02h-.01ZM1044.2,537.2l-17.38-2.35v-47.07h17.38v49.42Z"/>
          <path class="st0" d="M1076.78,551.86v-126.72h49.42c16.41,0,29.33,3.89,38.74,11.68s14.12,18.62,14.12,32.49c0,9.17-2.11,17.05-6.33,23.62-4.23,6.58-10.26,11.62-18.1,15.12-7.85,3.5-17.32,5.25-28.42,5.25h-39.46l8.15-8.33v46.88h-18.12ZM1094.88,506.79l-8.15-8.87h38.92c11.59,0,20.37-2.5,26.34-7.51s8.96-12.04,8.96-21.09-2.99-16.05-8.96-21-14.75-7.42-26.34-7.42h-38.92l8.15-9.05v74.94ZM1161.5,551.86l-32.22-45.98h19.37l32.58,45.98h-19.73Z"/>
          <path class="st0" d="M1263.59,553.31c-9.66,0-18.62-1.63-26.88-4.89-8.27-3.26-15.42-7.81-21.45-13.67-6.04-5.85-10.74-12.7-14.12-20.55-3.38-7.84-5.07-16.41-5.07-25.71s1.69-17.86,5.07-25.71c3.38-7.84,8.08-14.69,14.12-20.55,6.03-5.85,13.15-10.41,21.36-13.67s17.2-4.89,26.97-4.89,18.55,1.6,26.7,4.8c8.15,3.2,15.27,7.72,21.36,13.58,6.09,5.85,10.8,12.7,14.12,20.55,3.32,7.85,4.98,16.47,4.98,25.89s-1.66,18.04-4.98,25.89c-3.32,7.85-8.03,14.69-14.12,20.55-6.09,5.85-13.21,10.38-21.36,13.58s-17.05,4.8-26.7,4.8h0ZM1263.59,537.2c7,0,13.49-1.2,19.46-3.62,5.97-2.41,11.16-5.82,15.57-10.23,4.4-4.4,7.84-9.56,10.32-15.48,2.47-5.91,3.71-12.37,3.71-19.37s-1.24-13.46-3.71-19.37-5.91-11.07-10.32-15.48c-4.41-4.4-9.59-7.81-15.57-10.23-5.97-2.41-12.46-3.62-19.46-3.62s-13.67,1.21-19.64,3.62c-5.97,2.42-11.19,5.82-15.66,10.23-4.47,4.41-7.94,9.57-10.41,15.48-2.48,5.91-3.71,12.37-3.71,19.37s1.24,13.46,3.71,19.37,5.94,11.07,10.41,15.48c4.46,4.41,9.68,7.82,15.66,10.23,5.97,2.42,12.52,3.62,19.64,3.62Z"/>
          <path class="st0" d="M1408.95,553.31c-16.65,0-29.75-4.77-39.28-14.3-9.54-9.53-14.3-23.47-14.3-41.82v-72.05h18.1v71.32c0,14.12,3.11,24.44,9.32,30.95,6.21,6.52,14.99,9.78,26.34,9.78s20.3-3.26,26.52-9.78c6.21-6.52,9.32-16.83,9.32-30.95v-71.32h17.56v72.05c0,18.35-4.74,32.28-14.21,41.82-9.47,9.53-22.6,14.3-39.37,14.3h0Z"/>
          <path class="st0" d="M1497.65,551.86v-126.72h49.42c11.1,0,20.57,1.75,28.42,5.25,7.84,3.5,13.88,8.57,18.1,15.21,4.22,6.64,6.33,14.54,6.33,23.71s-2.11,17.05-6.33,23.62c-4.23,6.58-10.26,11.65-18.1,15.21-7.85,3.56-17.32,5.34-28.42,5.34h-39.46l8.15-8.51v46.88h-18.11ZM1515.75,506.79l-8.15-9.05h38.92c11.59,0,20.37-2.47,26.34-7.42s8.96-11.95,8.96-21-2.99-16.05-8.96-21-14.75-7.42-26.34-7.42h-38.92l8.15-9.05v74.94Z"/>
        </g>
      </g>
    </g>
  </g>
</svg>