<?xml version="1.0" encoding="UTF-8"?>
<svg id="Layer_1" xmlns="http://www.w3.org/2000/svg" version="1.1" viewBox="0 0 2065.46 970.41">
  <!-- Generator: Adobe Illustrator 30.1.0, SVG Export Plug-In . SVG Version: 2.1.1 Build 136)  -->
  <defs>
    <style>
      .st0 {
        fill: #062038;
      }

      .st1 {
        isolation: isolate;
      }
    </style>
  </defs>
  <g>
    <polyline class="st0" points="713.38 497.97 671.89 424.22 639.39 424.22 639.39 551.86 672.46 551.86 672.46 486.03 704.81 539.29 720.71 539.29 753.06 484.51 753.06 551.86 753.6 551.86 753.6 551.86 786.49 551.86 786.49 551.86 786.49 551.86 786.49 424.22 753.06 424.22"/>
    <path class="st0" d="M494.46,486.13c-.76-.31-1.53-.6-2.31-.88,5.02-2.71,9.02-6.18,11.98-10.43,3.43-4.92,5.15-10.67,5.15-17.23,0-9.97-4.1-18.02-12.29-24.16s-20.6-9.21-37.23-9.21h-64.7v127.64h68.31c16.99,0,29.91-3.07,38.76-9.21,8.86-6.14,13.28-14.74,13.28-25.8,0-7.41-1.84-13.7-5.51-18.87-3.68-5.17-8.83-9.12-15.45-11.85h0ZM430.48,450.3h24.58c6.02,0,10.54,1,13.55,3.01,3.01,2.01,4.52,5.08,4.52,9.21s-1.51,7.23-4.52,9.3c-3.01,2.07-7.53,3.1-13.55,3.1h-24.58v-24.62h0ZM474.49,522.6c-3.19,2.13-7.86,3.19-14.01,3.19h-30v-25.89h30c6.14,0,10.81,1.07,14.01,3.19,3.19,2.13,4.79,5.38,4.79,9.76s-1.6,7.63-4.79,9.76h0Z"/>
    <polygon class="st0" points="516.32 452.85 555.18 452.85 555.18 551.86 590.96 551.86 590.96 452.85 629.63 452.85 629.63 424.22 516.32 424.22 516.32 452.85"/>
  </g>
  <g class="st1">
    <g class="st1">
      <g class="st1">
        <g class="st1">
          <path class="st0" d="M819.77,551.86v-126.72h56.84c14.6,0,25.82,2.93,33.67,8.78,7.84,5.86,11.77,13.85,11.77,23.99,0,6.88-1.54,12.67-4.62,17.38s-7.21,8.33-12.4,10.86-10.8,3.8-16.83,3.8l3.26-5.43c7.24,0,13.64,1.27,19.19,3.8s9.96,6.25,13.21,11.13c3.26,4.89,4.89,10.95,4.89,18.19,0,10.86-4.07,19.28-12.22,25.25-8.15,5.97-20.25,8.96-36.29,8.96h-60.47ZM837.87,537.2h41.64c10.02,0,17.68-1.69,22.99-5.07s7.96-8.69,7.96-15.93-2.66-12.73-7.96-16.11c-5.31-3.38-12.97-5.07-22.99-5.07h-43.26v-14.66h38.74c9.17,0,16.29-1.69,21.36-5.07s7.6-8.45,7.6-15.21-2.53-11.83-7.6-15.21c-5.07-3.38-12.19-5.07-21.36-5.07h-37.11v97.39h-.01Z"/>
          <path class="st0" d="M961.15,551.86v-126.72h89.42v15.75h-71.32v95.22h73.86v15.75h-91.96ZM977.62,495.2v-15.39h65.17v15.39h-65.17Z"/>
          <path class="st0" d="M1086.78,551.86v-126.72h14.84l83.81,104.09h-7.78v-104.09h18.1v126.72h-14.84l-83.81-104.09h7.78v104.09h-18.1,0Z"/>
          <path class="st0" d="M1238.11,551.86v-126.72h89.42v15.75h-71.32v95.22h73.86v15.75h-91.96ZM1254.58,495.2v-15.39h65.17v15.39h-65.17Z"/>
          <path class="st0" d="M1363.74,551.86v-126.72h18.1v110.97h68.61v15.75h-86.71Z"/>
          <path class="st0" d="M1525.93,553.31c-16.65,0-29.75-4.77-39.28-14.3-9.53-9.53-14.3-23.47-14.3-41.82v-72.05h18.1v71.32c0,14.12,3.11,24.44,9.32,30.96s14.99,9.78,26.34,9.78,20.3-3.26,26.52-9.78c6.21-6.52,9.32-16.83,9.32-30.96v-71.32h17.56v72.05c0,18.35-4.74,32.28-14.21,41.82-9.48,9.53-22.6,14.3-39.37,14.3h0Z"/>
          <path class="st0" d="M1602.51,551.86l52.68-71.87v13.94l-49.78-68.79h20.64l39.46,54.13-8.15.18,39.28-54.31h19.73l-49.42,67.7v-13.03l52.68,72.05h-20.82l-42-57.75h7.96l-41.45,57.75h-20.82,0Z"/>
        </g>
      </g>
    </g>
  </g>
  <polygon class="st0" points="753.4 565.41 753.4 672.45 383.38 672.45 383.38 302.43 753.4 302.43 753.4 409.48 786.49 409.48 786.49 269.34 350.29 269.34 350.29 705.54 786.49 705.54 786.49 565.41 753.4 565.41"/>
</svg>