<?xml version="1.0" encoding="UTF-8"?>
<svg id="Layer_1" xmlns="http://www.w3.org/2000/svg" version="1.1" viewBox="0 0 2065.46 970.41">
  <!-- Generator: Adobe Illustrator 30.1.0, SVG Export Plug-In . SVG Version: 2.1.1 Build 136)  -->
  <defs>
    <style>
      .st0 {
        fill: #062038;
      }

      .st1 {
        isolation: isolate;
      }
    </style>
  </defs>
  <g>
    <polyline class="st0" points="807.9 497.96 766.41 424.22 733.92 424.22 733.92 551.86 766.99 551.86 766.99 486.03 799.34 539.29 815.24 539.29 847.59 484.51 847.59 551.86 848.13 551.86 848.13 551.86 881.02 551.86 881.02 551.86 881.02 551.86 881.02 424.22 847.59 424.22"/>
    <path class="st0" d="M588.99,486.12c-.76-.31-1.53-.6-2.31-.88,5.02-2.71,9.02-6.18,11.98-10.43,3.43-4.92,5.15-10.67,5.15-17.23,0-9.97-4.1-18.02-12.29-24.16s-20.6-9.21-37.23-9.21h-64.7v127.64h68.31c16.99,0,29.91-3.07,38.76-9.21,8.86-6.14,13.28-14.74,13.28-25.8,0-7.41-1.84-13.7-5.51-18.87-3.68-5.17-8.83-9.12-15.45-11.85h0ZM525.01,450.29h24.58c6.02,0,10.54,1,13.55,3.01s4.52,5.08,4.52,9.21-1.51,7.23-4.52,9.3c-3.01,2.07-7.53,3.1-13.55,3.1h-24.58v-24.62ZM569.02,522.6c-3.19,2.13-7.86,3.19-14.01,3.19h-30v-25.89h30c6.14,0,10.81,1.07,14.01,3.19,3.19,2.13,4.79,5.38,4.79,9.76s-1.6,7.63-4.79,9.76h0Z"/>
    <polygon class="st0" points="610.85 452.85 649.7 452.85 649.7 551.86 685.49 551.86 685.49 452.85 724.16 452.85 724.16 424.22 610.85 424.22 610.85 452.85"/>
  </g>
  <g class="st1">
    <g class="st1">
      <g class="st1">
        <g class="st1">
          <path class="st0" d="M956.77,551.86v-110.97h-43.45v-15.75h104.81v15.75h-43.45v110.97h-17.92.01Z"/>
          <path class="st0" d="M1042.21,551.86v-126.72h89.42v15.75h-71.32v95.22h73.86v15.75h-91.96ZM1058.68,495.2v-15.39h65.17v15.39h-65.17Z"/>
          <path class="st0" d="M1167.84,551.86v-126.72h18.1v126.72h-18.1ZM1183.77,521.27l-.91-22.08,71.87-74.04h20.64l-55.57,58.65-10.14,11.22-25.89,26.25ZM1257.62,551.86l-51.95-60.46,12.13-13.4,61,73.86h-21.18Z"/>
          <path class="st0" d="M1302.34,551.86v-126.72h14.84l83.81,104.09h-7.78v-104.09h18.1v126.72h-14.84l-83.81-104.09h7.78v104.09h-18.1Z"/>
          <path class="st0" d="M1462.72,411.57c-3.02,0-5.55-1.02-7.6-3.08-2.05-2.05-3.08-4.58-3.08-7.6s1.02-5.55,3.08-7.6c2.05-2.05,4.58-3.08,7.6-3.08s5.55,1.03,7.6,3.08c2.05,2.05,3.08,4.59,3.08,7.6s-1.03,5.55-3.08,7.6c-2.05,2.05-4.59,3.08-7.6,3.08ZM1453.67,551.86v-126.72h18.1v126.72h-18.1Z"/>
          <path class="st0" d="M1514.13,551.86v-126.72h18.1v126.72h-18.1ZM1530.06,521.27l-.91-22.08,71.87-74.04h20.64l-55.57,58.65-10.14,11.22-25.89,26.25ZM1603.92,551.86l-51.95-60.46,12.13-13.4,61,73.86h-21.18Z"/>
        </g>
      </g>
    </g>
  </g>
  <polygon class="st0" points="847.93 566.01 847.93 673.05 477.91 673.05 477.91 303.03 847.93 303.03 847.93 410.08 881.02 410.08 881.02 269.94 444.82 269.94 444.82 706.14 881.02 706.14 881.02 566.01 847.93 566.01"/>
</svg>