<?xml version="1.0" encoding="UTF-8"?>
<svg id="Layer_1" xmlns="http://www.w3.org/2000/svg" version="1.1" viewBox="0 0 2065.46 970.41">
  <!-- Generator: Adobe Illustrator 30.1.0, SVG Export Plug-In . SVG Version: 2.1.1 Build 136)  -->
  <defs>
    <style>
      .st0 {
        fill: #062038;
      }

      .st1 {
        isolation: isolate;
      }
    </style>
  </defs>
  <g>
    <polyline class="st0" points="654.8 499.09 613.31 425.34 580.81 425.34 580.81 552.98 613.88 552.98 613.88 487.16 646.23 540.4 662.13 540.4 694.48 485.64 694.48 552.98 695.02 552.98 695.02 552.98 727.91 552.98 727.91 552.98 727.91 552.98 727.91 425.34 694.48 425.34"/>
    <path class="st0" d="M435.88,487.25c-.76-.31-1.53-.6-2.31-.88,5.02-2.71,9.02-6.18,11.98-10.43,3.43-4.92,5.15-10.67,5.15-17.23,0-9.97-4.1-18.02-12.29-24.16s-20.6-9.21-37.23-9.21h-64.7v127.64h68.31c16.99,0,29.91-3.07,38.76-9.21,8.86-6.14,13.28-14.74,13.28-25.8,0-7.41-1.84-13.7-5.51-18.87-3.68-5.17-8.83-9.12-15.45-11.85h.01ZM371.91,451.42h24.58c6.02,0,10.54,1,13.55,3.01,3.01,2.01,4.52,5.08,4.52,9.21s-1.51,7.23-4.52,9.3c-3.01,2.07-7.53,3.1-13.55,3.1h-24.58v-24.62ZM415.91,523.72c-3.19,2.13-7.86,3.19-14.01,3.19h-30v-25.89h30c6.14,0,10.81,1.07,14.01,3.19,3.19,2.13,4.79,5.38,4.79,9.76s-1.6,7.63-4.79,9.76h0Z"/>
    <polygon class="st0" points="457.75 453.97 496.6 453.97 496.6 552.98 532.38 552.98 532.38 453.97 571.05 453.97 571.05 425.34 457.75 425.34 457.75 453.97"/>
  </g>
  <g class="st1">
    <g class="st1">
      <g class="st1">
        <path class="st0" d="M761.6,551.86l57.38-126.72h17.92l57.57,126.72h-19.01l-51.23-116.58h7.24l-51.23,116.58h-18.65.01ZM786.04,520.18l4.89-14.48h71.32l5.25,14.48h-81.46Z"/>
        <path class="st0" d="M968.15,551.86l-55.76-126.72h19.55l51.23,116.94h-11.22l51.59-116.94h18.1l-55.57,126.72h-17.92Z"/>
        <path class="st0" d="M1082.73,551.86v-126.72h49.42c16.41,0,29.33,3.89,38.74,11.68s14.12,18.62,14.12,32.49c0,9.17-2.11,17.05-6.33,23.62-4.23,6.58-10.26,11.62-18.1,15.12-7.85,3.5-17.32,5.25-28.42,5.25h-39.46l8.15-8.33v46.88h-18.12ZM1100.84,506.79l-8.15-8.87h38.92c11.58,0,20.36-2.5,26.34-7.51,5.97-5.01,8.96-12.04,8.96-21.09s-2.99-16.05-8.96-21-14.75-7.42-26.34-7.42h-38.92l8.15-9.05v74.94ZM1167.46,551.86l-32.22-45.98h19.37l32.58,45.98h-19.73Z"/>
        <path class="st0" d="M1220.12,551.86l57.38-126.72h17.92l57.57,126.72h-19.01l-51.23-116.58h7.24l-51.23,116.58h-18.65.01ZM1244.56,520.18l4.89-14.48h71.32l5.25,14.48h-81.46Z"/>
        <path class="st0" d="M1433.73,553.31c-9.66,0-18.89-1.48-27.7-4.44-8.81-2.96-15.75-6.79-20.82-11.49l6.7-14.12c4.83,4.23,10.98,7.72,18.46,10.5s15.26,4.16,23.35,4.16c7.36,0,13.33-.84,17.92-2.53,4.58-1.69,7.96-4.01,10.14-6.97,2.17-2.96,3.26-6.3,3.26-10.05,0-4.34-1.42-7.84-4.25-10.5-2.84-2.65-6.52-4.8-11.04-6.43-4.53-1.63-9.5-3.05-14.93-4.25s-10.89-2.62-16.38-4.25-10.5-3.71-15.02-6.25c-4.53-2.53-8.18-5.94-10.95-10.23-2.78-4.28-4.16-9.8-4.16-16.56s1.72-12.52,5.16-18.01c3.44-5.49,8.75-9.89,15.93-13.21,7.18-3.32,16.32-4.98,27.42-4.98,7.36,0,14.66.97,21.9,2.9s13.51,4.71,18.83,8.33l-5.97,14.48c-5.43-3.62-11.16-6.25-17.2-7.87-6.04-1.63-11.89-2.44-17.56-2.44-7.12,0-12.97.91-17.56,2.72-4.59,1.81-7.94,4.23-10.05,7.24-2.11,3.02-3.17,6.4-3.17,10.14,0,4.47,1.42,8.03,4.25,10.68,2.83,2.66,6.52,4.77,11.04,6.34,4.53,1.57,9.5,2.99,14.93,4.25,5.43,1.27,10.89,2.69,16.38,4.25,5.49,1.57,10.5,3.62,15.03,6.15s8.17,5.91,10.95,10.14c2.78,4.23,4.16,9.66,4.16,16.29s-1.75,12.34-5.25,17.83-8.9,9.9-16.2,13.21c-7.3,3.32-16.5,4.98-27.61,4.98h0Z"/>
        <path class="st0" d="M1562.07,551.86v-48.51l4.16,11.22-54.49-89.43h19.37l45.8,75.49h-10.5l45.98-75.49h17.92l-54.31,89.43,3.98-11.22v48.51h-17.92.01Z"/>
        <path class="st0" d="M1645.34,551.86l57.38-126.72h17.92l57.56,126.72h-19.01l-51.23-116.58h7.24l-51.23,116.58h-18.65.02,0ZM1669.78,520.18l4.89-14.48h71.32l5.25,14.48h-81.46Z"/>
      </g>
    </g>
  </g>
  <polygon class="st0" points="694.45 567.13 694.45 674.17 324.43 674.17 324.43 304.15 694.45 304.15 694.45 411.2 727.54 411.2 727.54 271.06 291.34 271.06 291.34 707.26 727.54 707.26 727.54 567.13 694.45 567.13"/>
</svg>