<?xml version="1.0" encoding="UTF-8"?>
<svg id="Layer_1" xmlns="http://www.w3.org/2000/svg" version="1.1" viewBox="0 0 2065.46 970.41">
  <!-- Generator: Adobe Illustrator 30.1.0, SVG Export Plug-In . SVG Version: 2.1.1 Build 136)  -->
  <defs>
    <style>
      .st0 {
        fill: #062038;
      }

      .st1 {
        isolation: isolate;
      }
    </style>
  </defs>
  <g>
    <polyline class="st0" points="634.29 497.66 592.8 423.92 560.3 423.92 560.3 551.57 593.37 551.57 593.37 485.73 625.72 538.98 641.62 538.98 673.98 484.21 673.98 551.57 674.52 551.57 674.52 551.57 707.41 551.57 707.41 551.57 707.41 551.57 707.41 423.92 673.98 423.92"/>
    <path class="st0" d="M415.37,485.82c-.76-.31-1.53-.6-2.31-.88,5.02-2.71,9.02-6.18,11.98-10.43,3.43-4.92,5.15-10.67,5.15-17.23,0-9.97-4.1-18.02-12.29-24.16s-20.6-9.21-37.23-9.21h-64.7v127.64h68.31c16.99,0,29.91-3.07,38.76-9.21,8.86-6.14,13.28-14.74,13.28-25.8,0-7.41-1.84-13.7-5.51-18.87-3.68-5.17-8.83-9.12-15.45-11.85h.01ZM351.4,449.99h24.58c6.02,0,10.54,1,13.55,3.01,3.01,2.01,4.52,5.08,4.52,9.21s-1.51,7.23-4.52,9.3c-3.01,2.07-7.53,3.1-13.55,3.1h-24.58v-24.62ZM395.4,522.29c-3.19,2.13-7.86,3.19-14.01,3.19h-30v-25.89h30c6.14,0,10.81,1.07,14.01,3.19,3.19,2.13,4.79,5.38,4.79,9.76s-1.6,7.63-4.79,9.76h0Z"/>
    <polygon class="st0" points="437.24 452.55 476.09 452.55 476.09 551.57 511.87 551.57 511.87 452.55 550.55 452.55 550.55 423.92 437.24 423.92 437.24 452.55"/>
  </g>
  <g class="st1">
    <g class="st1">
      <g class="st1">
        <path class="st0" d="M741.39,551.87l57.38-126.72h17.92l57.57,126.72h-19.01l-51.23-116.58h7.24l-51.23,116.58h-18.65.01ZM765.83,520.19l4.89-14.48h71.32l5.25,14.48h-81.46Z"/>
        <path class="st0" d="M918.07,551.87v-126.72h53.4c13.51,0,25.43,2.66,35.75,7.96,10.32,5.31,18.34,12.73,24.08,22.27,5.73,9.54,8.6,20.58,8.6,33.13s-2.87,23.6-8.6,33.13c-5.73,9.54-13.76,16.96-24.08,22.27s-22.24,7.97-35.75,7.97h-53.4ZM936.17,536.12h34.21c10.5,0,19.58-1.99,27.24-5.97s13.6-9.56,17.83-16.75c4.22-7.18,6.34-15.48,6.34-24.89s-2.11-17.86-6.34-24.98c-4.23-7.12-10.17-12.67-17.83-16.65-7.67-3.98-16.75-5.97-27.24-5.97h-34.21v95.22h0Z"/>
        <path class="st0" d="M1092.57,551.87v-126.72h49.42c16.41,0,29.33,3.89,38.74,11.68,9.41,7.78,14.12,18.62,14.12,32.49,0,9.17-2.11,17.05-6.33,23.62-4.23,6.58-10.26,11.62-18.1,15.12-7.85,3.5-17.32,5.25-28.42,5.25h-39.46l8.15-8.33v46.88h-18.12ZM1110.66,506.78l-8.15-8.87h38.92c11.58,0,20.36-2.5,26.34-7.51,5.97-5.01,8.96-12.04,8.96-21.09s-2.99-16.05-8.96-21-14.75-7.42-26.34-7.42h-38.92l8.15-9.05v74.94ZM1177.28,551.87l-32.22-45.98h19.37l32.58,45.98h-19.73Z"/>
        <path class="st0" d="M1249.14,551.87v-126.72h18.1v126.72h-18.1Z"/>
        <path class="st0" d="M1311.06,551.87l57.38-126.72h17.92l57.57,126.72h-19.01l-51.23-116.58h7.24l-51.23,116.58h-18.64ZM1335.5,520.19l4.89-14.48h71.32l5.25,14.48h-81.46Z"/>
        <path class="st0" d="M1506.57,551.87v-110.97h-43.45v-15.75h104.81v15.75h-43.45v110.97h-17.92.01Z"/>
        <path class="st0" d="M1612.64,551.87v-126.72h18.1v126.72h-18.1Z"/>
        <path class="st0" d="M1750.39,553.32c-9.66,0-18.56-1.6-26.7-4.8-8.15-3.2-15.21-7.72-21.18-13.58-5.97-5.85-10.65-12.7-14.03-20.55-3.38-7.84-5.07-16.47-5.07-25.89s1.69-18.04,5.07-25.89c3.38-7.84,8.08-14.69,14.12-20.55,6.03-5.85,13.12-10.38,21.27-13.58,8.15-3.2,17.04-4.8,26.7-4.8s18.8,1.66,27.06,4.98,15.3,8.24,21.09,14.75l-11.77,11.4c-4.83-5.07-10.26-8.84-16.29-11.31-6.04-2.47-12.49-3.71-19.37-3.71s-13.73,1.21-19.82,3.62c-6.09,2.42-11.38,5.79-15.84,10.14-4.47,4.34-7.94,9.5-10.41,15.48-2.47,5.97-3.71,12.46-3.71,19.46s1.24,13.49,3.71,19.46,5.94,11.13,10.41,15.48c4.46,4.34,9.74,7.72,15.84,10.14,6.09,2.42,12.7,3.62,19.82,3.62s13.33-1.24,19.37-3.71c6.03-2.47,11.46-6.3,16.29-11.5l11.77,11.4c-5.79,6.52-12.82,11.47-21.09,14.84-8.27,3.38-17.35,5.07-27.24,5.07v.03h0Z"/>
      </g>
    </g>
  </g>
  <polygon class="st0" points="674.32 565.7 674.32 672.74 304.3 672.74 304.3 302.73 674.32 302.73 674.32 409.77 707.41 409.77 707.41 269.64 271.21 269.64 271.21 705.83 707.41 705.83 707.41 565.7 674.32 565.7"/>
</svg>