<?xml version="1.0" encoding="UTF-8"?>
<svg id="Layer_1" xmlns="http://www.w3.org/2000/svg" version="1.1" viewBox="0 0 2065.46 970.41">
  <!-- Generator: Adobe Illustrator 30.1.0, SVG Export Plug-In . SVG Version: 2.1.1 Build 136)  -->
  <defs>
    <style>
      .st0 {
        fill: #062038;
      }

      .st1 {
        isolation: isolate;
      }
    </style>
  </defs>
  <g>
    <polyline class="st0" points="844.42 497.66 802.93 423.93 770.45 423.93 770.45 551.56 803.52 551.56 803.52 485.74 835.86 538.99 851.77 538.99 884.11 484.22 884.11 551.56 884.66 551.56 884.66 551.56 917.54 551.56 917.54 551.56 917.54 551.56 917.54 423.93 884.11 423.93"/>
    <path class="st0" d="M625.51,485.82c-.76-.31-1.53-.6-2.31-.88,5.02-2.71,9.02-6.18,11.98-10.43,3.43-4.92,5.15-10.67,5.15-17.23,0-9.97-4.1-18.02-12.29-24.16s-20.6-9.21-37.23-9.21h-64.7v127.64h68.31c16.99,0,29.91-3.07,38.76-9.21,8.86-6.14,13.28-14.74,13.28-25.8,0-7.41-1.84-13.7-5.51-18.87-3.68-5.17-8.83-9.12-15.45-11.85h0ZM561.53,450h24.58c6.02,0,10.54,1,13.55,3.01s4.52,5.08,4.52,9.21-1.51,7.23-4.52,9.3c-3.01,2.07-7.53,3.1-13.55,3.1h-24.58v-24.62ZM605.53,522.3c-3.19,2.13-7.86,3.19-14.01,3.19h-30v-25.89h30c6.14,0,10.81,1.07,14.01,3.19,3.19,2.13,4.79,5.38,4.79,9.76s-1.6,7.63-4.79,9.76h0Z"/>
    <polygon class="st0" points="647.38 452.56 686.22 452.56 686.22 551.56 722.02 551.56 722.02 452.56 760.68 452.56 760.68 423.93 647.38 423.93 647.38 452.56"/>
  </g>
  <g class="st1">
    <g class="st1">
      <g class="st1">
        <g class="st1">
          <path class="st0" d="M951.03,551.86v-126.72h18.1v126.72h-18.1Z"/>
          <path class="st0" d="M1011.48,551.86v-126.72h56.84c14.6,0,25.82,2.93,33.67,8.78,7.84,5.86,11.77,13.85,11.77,23.99,0,6.88-1.54,12.67-4.62,17.38s-7.21,8.33-12.4,10.86c-5.19,2.53-10.8,3.8-16.83,3.8l3.26-5.43c7.24,0,13.64,1.27,19.19,3.8,5.55,2.53,9.96,6.25,13.21,11.13,3.26,4.89,4.89,10.95,4.89,18.19,0,10.86-4.07,19.28-12.22,25.25s-20.25,8.96-36.29,8.96h-60.47ZM1029.58,537.2h41.63c10.02,0,17.68-1.69,22.99-5.07,5.31-3.38,7.96-8.69,7.96-15.93s-2.66-12.73-7.96-16.11c-5.31-3.38-12.97-5.07-22.99-5.07h-43.26v-14.66h38.74c9.17,0,16.29-1.69,21.36-5.07s7.6-8.45,7.6-15.21-2.53-11.83-7.6-15.21-12.19-5.07-21.36-5.07h-37.11v97.39h0Z"/>
          <path class="st0" d="M1152.86,551.86v-126.72h89.43v15.75h-71.32v95.22h73.86v15.75h-91.97ZM1169.33,495.21v-15.39h65.17v15.39h-65.17Z"/>
          <path class="st0" d="M1278.49,551.86v-126.72h49.42c16.41,0,29.33,3.89,38.74,11.68,9.41,7.78,14.12,18.62,14.12,32.49,0,9.17-2.11,17.05-6.33,23.62-4.23,6.58-10.26,11.62-18.1,15.12-7.85,3.5-17.32,5.25-28.42,5.25h-39.46l8.15-8.33v46.88h-18.12ZM1296.59,506.79l-8.15-8.87h38.92c11.59,0,20.37-2.5,26.34-7.51s8.96-12.04,8.96-21.09-2.99-16.05-8.96-21-14.75-7.42-26.34-7.42h-38.92l8.15-9.05v74.94ZM1363.2,551.86l-32.22-45.98h19.37l32.58,45.98h-19.73Z"/>
          <path class="st0" d="M1414.44,551.86v-126.72h18.1v126.72h-18.1Z"/>
          <path class="st0" d="M1455.7,551.86l57.38-126.72h17.92l57.57,126.72h-19.01l-51.23-116.58h7.24l-51.23,116.58h-18.64ZM1480.15,520.18l4.89-14.48h71.32l5.25,14.48h-81.46Z"/>
        </g>
      </g>
    </g>
  </g>
  <polygon class="st0" points="884.45 565.7 884.45 672.74 514.43 672.74 514.43 302.73 884.45 302.73 884.45 409.77 917.54 409.77 917.54 269.63 481.34 269.63 481.34 705.83 917.54 705.83 917.54 565.7 884.45 565.7"/>
</svg>