<?xml version="1.0" encoding="UTF-8"?>
<svg id="katman_1" xmlns="http://www.w3.org/2000/svg" version="1.1" viewBox="0 0 179 59.62">
  <!-- Generator: Adobe Illustrator 30.1.0, SVG Export Plug-In . SVG Version: 2.1.1 Build 136)  -->
  <defs>
    <style>
      .st0 {
        fill: #062038;
      }

      .st1 {
        isolation: isolate;
      }
    </style>
  </defs>
  <g>
    <polyline class="st0" points="61 31.05 55.83 21.87 51.79 21.87 51.79 37.76 55.91 37.76 55.91 29.56 59.93 36.19 61.91 36.19 65.94 29.37 65.94 37.76 66.01 37.76 66.01 37.76 70.1 37.76 70.1 37.76 70.1 37.76 70.1 21.87 65.94 21.87"/>
    <path class="st0" d="M33.75,29.57c-.09-.04-.19-.07-.29-.11.62-.34,1.12-.77,1.49-1.3.43-.61.64-1.33.64-2.14,0-1.24-.51-2.24-1.53-3.01s-2.56-1.15-4.63-1.15h-8.05v15.89h8.5c2.11,0,3.72-.38,4.83-1.15,1.1-.76,1.65-1.83,1.65-3.21,0-.92-.23-1.71-.69-2.35-.46-.64-1.1-1.14-1.92-1.48h0ZM25.78,25.11h3.06c.75,0,1.31.12,1.69.37s.56.63.56,1.15-.19.9-.56,1.16c-.37.26-.94.39-1.69.39h-3.06v-3.06ZM31.26,34.11c-.4.27-.98.4-1.74.4h-3.73v-3.22h3.73c.76,0,1.35.13,1.74.4.4.27.6.67.6,1.21s-.2.95-.6,1.21h0Z"/>
    <polygon class="st0" points="36.47 25.43 41.31 25.43 41.31 37.76 45.76 37.76 45.76 25.43 50.57 25.43 50.57 21.87 36.47 21.87 36.47 25.43"/>
  </g>
  <g class="st1">
    <g class="st1">
      <g class="st1">
        <g class="st1">
          <path class="st0" d="M74.1,37.94l7.14-15.77h2.23l7.17,15.77h-2.37l-6.38-14.51h.9l-6.38,14.51h-2.32,0ZM77.14,34l.61-1.8h8.88l.65,1.8h-10.14Z"/>
          <path class="st0" d="M93.53,37.94v-15.77h11.13v1.96h-8.88v13.81h-2.25ZM95.55,31.56v-1.94h8.14v1.94h-8.14Z"/>
          <path class="st0" d="M108.37,37.94v-15.77h6.15c2.04,0,3.65.48,4.82,1.45,1.17.97,1.76,2.32,1.76,4.04,0,1.14-.26,2.12-.79,2.94-.53.82-1.28,1.45-2.25,1.88-.98.44-2.16.65-3.54.65h-4.91l1.01-1.04v5.84h-2.26ZM110.63,32.33l-1.01-1.1h4.84c1.44,0,2.54-.31,3.28-.93s1.12-1.5,1.12-2.63-.37-2-1.12-2.61-1.84-.92-3.28-.92h-4.84l1.01-1.13v9.33ZM118.92,37.94l-4.01-5.72h2.41l4.06,5.72h-2.46Z"/>
          <path class="st0" d="M125.3,37.94v-15.77h2.25v15.77h-2.25Z"/>
          <path class="st0" d="M139.88,38.12c-1.2,0-2.31-.2-3.32-.6-1.01-.4-1.89-.96-2.64-1.69-.74-.73-1.33-1.58-1.75-2.56-.42-.98-.63-2.05-.63-3.22s.21-2.25.63-3.22c.42-.98,1.01-1.83,1.76-2.56.75-.73,1.63-1.29,2.65-1.69,1.01-.4,2.12-.6,3.32-.6s2.34.21,3.37.62c1.03.41,1.9,1.03,2.63,1.84l-1.47,1.42c-.6-.63-1.28-1.1-2.03-1.41-.75-.31-1.55-.46-2.41-.46s-1.71.15-2.47.45c-.76.3-1.42.72-1.97,1.26-.56.54-.99,1.18-1.3,1.93-.31.74-.46,1.55-.46,2.42s.15,1.68.46,2.42.74,1.39,1.3,1.93c.56.54,1.21.96,1.97,1.26.76.3,1.58.45,2.47.45s1.66-.15,2.41-.46c.75-.31,1.43-.78,2.03-1.43l1.47,1.42c-.72.81-1.6,1.43-2.63,1.85-1.03.42-2.16.63-3.39.63h0s0,0,0,0Z"/>
          <path class="st0" d="M146.66,37.94l7.14-15.77h2.23l7.17,15.77h-2.37l-6.38-14.51h.9l-6.38,14.51h-2.32ZM149.7,34l.61-1.8h8.88l.65,1.8h-10.14Z"/>
        </g>
      </g>
    </g>
  </g>
  <polygon class="st0" points="65.98 39.52 65.98 52.84 19.92 52.84 19.92 6.78 65.98 6.78 65.98 20.11 70.1 20.11 70.1 2.66 15.8 2.66 15.8 56.96 70.1 56.96 70.1 39.52 65.98 39.52"/>
</svg>