<?xml version="1.0" encoding="UTF-8"?>
<svg id="katman_1" xmlns="http://www.w3.org/2000/svg" version="1.1" viewBox="0 0 179 59.62">
  <!-- Generator: Adobe Illustrator 30.1.0, SVG Export Plug-In . SVG Version: 2.1.1 Build 136)  -->
  <defs>
    <style>
      .st0 {
        fill: #062038;
      }

      .st1 {
        isolation: isolate;
      }
    </style>
  </defs>
  <g>
    <polyline class="st0" points="48.36 30.89 43.87 22.9 40.35 22.9 40.35 36.72 43.93 36.72 43.93 29.59 47.44 35.36 49.16 35.36 52.66 29.43 52.66 36.72 52.72 36.72 52.72 36.72 56.28 36.72 56.28 36.72 56.28 36.72 56.28 22.9 52.66 22.9"/>
    <path class="st0" d="M24.66,29.6c-.08-.03-.17-.06-.25-.1.54-.29.98-.67,1.3-1.13.37-.53.56-1.16.56-1.87,0-1.08-.44-1.95-1.33-2.62s-2.23-1-4.03-1h-7v13.82h7.4c1.84,0,3.24-.33,4.2-1,.96-.66,1.44-1.6,1.44-2.79,0-.8-.2-1.48-.6-2.04-.4-.56-.96-.99-1.67-1.28h0ZM17.74,25.72h2.66c.65,0,1.14.11,1.47.33.33.22.49.55.49,1s-.16.78-.49,1.01c-.33.22-.82.34-1.47.34h-2.66v-2.67ZM22.5,33.55c-.35.23-.85.35-1.52.35h-3.25v-2.8h3.25c.66,0,1.17.12,1.52.35.35.23.52.58.52,1.06s-.17.83-.52,1.06h0Z"/>
    <polygon class="st0" points="27.03 26 31.24 26 31.24 36.72 35.11 36.72 35.11 26 39.3 26 39.3 22.9 27.03 22.9 27.03 26"/>
  </g>
  <g class="st1">
    <g class="st1">
      <g class="st1">
        <path class="st0" d="M59.93,36.6l6.21-13.72h1.94l6.23,13.72h-2.06l-5.55-12.62h.78l-5.55,12.62h-2.02,0ZM62.57,33.17l.53-1.57h7.72l.57,1.57h-8.82Z"/>
        <path class="st0" d="M82.29,36.6l-6.04-13.72h2.12l5.55,12.66h-1.21l5.59-12.66h1.96l-6.02,13.72h-1.94Z"/>
        <path class="st0" d="M94.69,36.6v-13.72h5.35c1.78,0,3.18.42,4.19,1.26s1.53,2.02,1.53,3.52c0,.99-.23,1.85-.69,2.56-.46.71-1.11,1.26-1.96,1.64-.85.38-1.88.57-3.08.57h-4.27l.88-.9v5.08h-1.96ZM96.65,31.72l-.88-.96h4.21c1.25,0,2.2-.27,2.85-.81.65-.54.97-1.3.97-2.28s-.32-1.74-.97-2.27-1.6-.8-2.85-.8h-4.21l.88-.98v8.11ZM103.87,36.6l-3.49-4.98h2.1l3.53,4.98h-2.14Z"/>
        <path class="st0" d="M109.57,36.6l6.21-13.72h1.94l6.23,13.72h-2.06l-5.55-12.62h.78l-5.55,12.62h-2.02,0ZM112.21,33.17l.53-1.57h7.72l.57,1.57h-8.82Z"/>
        <path class="st0" d="M132.69,36.76c-1.05,0-2.05-.16-3-.48-.95-.32-1.71-.74-2.25-1.24l.73-1.53c.52.46,1.19.84,2,1.14s1.65.45,2.53.45c.8,0,1.44-.09,1.94-.27.5-.18.86-.43,1.1-.75.23-.32.35-.68.35-1.09,0-.47-.15-.85-.46-1.14-.31-.29-.71-.52-1.2-.7-.49-.18-1.03-.33-1.62-.46s-1.18-.28-1.77-.46-1.14-.4-1.63-.68c-.49-.27-.89-.64-1.19-1.11-.3-.46-.45-1.06-.45-1.79s.19-1.36.56-1.95c.37-.59.95-1.07,1.72-1.43.78-.36,1.77-.54,2.97-.54.8,0,1.59.11,2.37.31s1.46.51,2.04.9l-.65,1.57c-.59-.39-1.21-.68-1.86-.85-.65-.18-1.29-.26-1.9-.26-.77,0-1.4.1-1.9.29-.5.2-.86.46-1.09.78-.23.33-.34.69-.34,1.1,0,.48.15.87.46,1.16.31.29.71.52,1.2.69.49.17,1.03.32,1.62.46.59.14,1.18.29,1.77.46.59.17,1.14.39,1.63.67s.88.64,1.19,1.1c.3.46.45,1.05.45,1.76s-.19,1.34-.57,1.93-.96,1.07-1.75,1.43c-.79.36-1.79.54-2.99.54h0Z"/>
        <path class="st0" d="M146.59,36.6v-5.25l.45,1.21-5.9-9.68h2.1l4.96,8.17h-1.14l4.98-8.17h1.94l-5.88,9.68.43-1.21v5.25h-1.94,0Z"/>
        <path class="st0" d="M155.6,36.6l6.21-13.72h1.94l6.23,13.72h-2.06l-5.55-12.62h.78l-5.55,12.62h-2.02,0,0ZM158.25,33.17l.53-1.57h7.72l.57,1.57h-8.82Z"/>
      </g>
    </g>
  </g>
  <polygon class="st0" points="52.66 38.25 52.66 49.84 12.6 49.84 12.6 9.78 52.66 9.78 52.66 21.37 56.24 21.37 56.24 6.2 9.02 6.2 9.02 53.42 56.24 53.42 56.24 38.25 52.66 38.25"/>
</svg>