<?xml version="1.0" encoding="UTF-8"?>
<svg id="katman_1" xmlns="http://www.w3.org/2000/svg" version="1.1" viewBox="0 0 179 59.62">
  <!-- Generator: Adobe Illustrator 30.1.0, SVG Export Plug-In . SVG Version: 2.1.1 Build 136)  -->
  <defs>
    <style>
      .st0 {
        fill: #062038;
      }

      .st1 {
        isolation: isolate;
      }
    </style>
  </defs>
  <g>
    <polyline class="st0" points="44.5 30.93 39.84 22.64 36.19 22.64 36.19 36.98 39.91 36.98 39.91 29.59 43.54 35.57 45.32 35.57 48.96 29.41 48.96 36.98 49.02 36.98 49.02 36.98 52.71 36.98 52.71 36.98 52.71 36.98 52.71 22.64 48.96 22.64"/>
    <path class="st0" d="M19.92,29.6c-.09-.03-.17-.07-.26-.1.56-.3,1.01-.69,1.35-1.17.39-.55.58-1.2.58-1.94,0-1.12-.46-2.02-1.38-2.71s-2.31-1.03-4.18-1.03h-7.27v14.33h7.67c1.91,0,3.36-.34,4.35-1.03,1-.69,1.49-1.66,1.49-2.9,0-.83-.21-1.54-.62-2.12-.41-.58-.99-1.02-1.74-1.33h0ZM12.73,25.57h2.76c.68,0,1.18.11,1.52.34.34.23.51.57.51,1.03s-.17.81-.51,1.04c-.34.23-.85.35-1.52.35h-2.76v-2.76ZM17.67,33.69c-.36.24-.88.36-1.57.36h-3.37v-2.91h3.37c.69,0,1.21.12,1.57.36.36.24.54.6.54,1.1s-.18.86-.54,1.1h0Z"/>
    <polygon class="st0" points="22.37 25.86 26.73 25.86 26.73 36.98 30.75 36.98 30.75 25.86 35.1 25.86 35.1 22.64 22.37 22.64 22.37 25.86"/>
  </g>
  <g class="st1">
    <g class="st1">
      <g class="st1">
        <path class="st0" d="M56.53,37.01l6.44-14.23h2.01l6.47,14.23h-2.13l-5.75-13.09h.81l-5.75,13.09h-2.09,0ZM59.27,33.46l.55-1.63h8.01l.59,1.63h-9.15Z"/>
        <path class="st0" d="M76.37,37.01v-14.23h6c1.52,0,2.86.3,4.01.89,1.16.6,2.06,1.43,2.7,2.5.64,1.07.97,2.31.97,3.72s-.32,2.65-.97,3.72c-.64,1.07-1.55,1.9-2.7,2.5s-2.5.9-4.01.9h-6ZM78.4,35.24h3.84c1.18,0,2.2-.22,3.06-.67s1.53-1.07,2-1.88c.47-.81.71-1.74.71-2.8s-.24-2.01-.71-2.81c-.48-.8-1.14-1.42-2-1.87-.86-.45-1.88-.67-3.06-.67h-3.84v10.69h0Z"/>
        <path class="st0" d="M95.97,37.01v-14.23h5.55c1.84,0,3.29.44,4.35,1.31,1.06.87,1.59,2.09,1.59,3.65,0,1.03-.24,1.91-.71,2.65-.48.74-1.15,1.31-2.03,1.7-.88.39-1.95.59-3.19.59h-4.43l.92-.94v5.26h-2.04ZM98,31.95l-.92-1h4.37c1.3,0,2.29-.28,2.96-.84.67-.56,1.01-1.35,1.01-2.37s-.34-1.8-1.01-2.36-1.66-.83-2.96-.83h-4.37l.92-1.02v8.42ZM105.48,37.01l-3.62-5.16h2.18l3.66,5.16h-2.22Z"/>
        <path class="st0" d="M113.55,37.01v-14.23h2.03v14.23h-2.03Z"/>
        <path class="st0" d="M120.51,37.01l6.44-14.23h2.01l6.47,14.23h-2.13l-5.75-13.09h.81l-5.75,13.09h-2.09ZM123.25,33.46l.55-1.63h8.01l.59,1.63h-9.15Z"/>
        <path class="st0" d="M142.46,37.01v-12.46h-4.88v-1.77h11.77v1.77h-4.88v12.46h-2.01,0Z"/>
        <path class="st0" d="M154.38,37.01v-14.23h2.03v14.23h-2.03Z"/>
        <path class="st0" d="M169.85,37.18c-1.08,0-2.08-.18-3-.54-.92-.36-1.71-.87-2.38-1.53-.67-.66-1.2-1.43-1.58-2.31-.38-.88-.57-1.85-.57-2.91s.19-2.03.57-2.91c.38-.88.91-1.65,1.59-2.31.68-.66,1.47-1.17,2.39-1.53.92-.36,1.91-.54,3-.54s2.11.19,3.04.56,1.72.93,2.37,1.66l-1.32,1.28c-.54-.57-1.15-.99-1.83-1.27-.68-.28-1.4-.42-2.18-.42s-1.54.14-2.23.41c-.68.27-1.28.65-1.78,1.14-.5.49-.89,1.07-1.17,1.74-.28.67-.42,1.4-.42,2.19s.14,1.52.42,2.19.67,1.25,1.17,1.74c.5.49,1.09.87,1.78,1.14.68.27,1.43.41,2.23.41s1.5-.14,2.18-.42c.68-.28,1.29-.71,1.83-1.29l1.32,1.28c-.65.73-1.44,1.29-2.37,1.67-.93.38-1.95.57-3.06.57h0s0,0,0,0Z"/>
      </g>
    </g>
  </g>
  <polygon class="st0" points="49 38.57 49 50.59 7.44 50.59 7.44 9.03 49 9.03 49 21.05 52.71 21.05 52.71 5.32 3.73 5.32 3.73 54.3 52.71 54.3 52.71 38.57 49 38.57"/>
</svg>