<?xml version="1.0" encoding="UTF-8"?>
<svg id="katman_1" xmlns="http://www.w3.org/2000/svg" version="1.1" viewBox="0 0 179 59.62">
  <!-- Generator: Adobe Illustrator 30.1.0, SVG Export Plug-In . SVG Version: 2.1.1 Build 136)  -->
  <defs>
    <style>
      .st0 {
        fill: #062038;
      }

      .st1 {
        isolation: isolate;
      }
    </style>
  </defs>
  <g>
    <polyline class="st0" points="72 31.1 66.93 22.08 62.95 22.08 62.95 37.69 67 37.69 67 29.64 70.96 36.15 72.9 36.15 76.86 29.45 76.86 37.69 76.92 37.69 76.92 37.69 80.95 37.69 80.95 37.69 80.95 37.69 80.95 22.08 76.86 22.08"/>
    <path class="st0" d="M45.22,29.65c-.09-.04-.19-.07-.28-.11.61-.33,1.1-.76,1.47-1.28.42-.6.63-1.31.63-2.11,0-1.22-.5-2.2-1.5-2.96s-2.52-1.13-4.55-1.13h-7.92v15.62h8.36c2.08,0,3.66-.38,4.74-1.13,1.08-.75,1.62-1.8,1.62-3.16,0-.91-.23-1.68-.67-2.31-.45-.63-1.08-1.12-1.89-1.45h0ZM37.4,25.27h3.01c.74,0,1.29.12,1.66.37s.55.62.55,1.13-.18.88-.55,1.14c-.37.25-.92.38-1.66.38h-3.01v-3.01ZM42.78,34.11c-.39.26-.96.39-1.71.39h-3.67v-3.17h3.67c.75,0,1.32.13,1.71.39.39.26.59.66.59,1.19s-.2.93-.59,1.19h0Z"/>
    <polygon class="st0" points="47.9 25.58 52.65 25.58 52.65 37.69 57.03 37.69 57.03 25.58 61.76 25.58 61.76 22.08 47.9 22.08 47.9 25.58"/>
  </g>
  <g class="st1">
    <g class="st1">
      <g class="st1">
        <g class="st1">
          <path class="st0" d="M85.38,37.69v-15.5h6.95c1.79,0,3.16.36,4.12,1.07.96.72,1.44,1.69,1.44,2.93,0,.84-.19,1.55-.57,2.13s-.88,1.02-1.52,1.33c-.63.31-1.32.46-2.06.46l.4-.66c.89,0,1.67.16,2.35.46.68.31,1.22.76,1.62,1.36s.6,1.34.6,2.23c0,1.33-.5,2.36-1.49,3.09s-2.48,1.1-4.44,1.1h-7.4ZM87.59,35.9h5.09c1.23,0,2.16-.21,2.81-.62.65-.41.97-1.06.97-1.95s-.33-1.56-.97-1.97c-.65-.41-1.59-.62-2.81-.62h-5.29v-1.79h4.74c1.12,0,1.99-.21,2.61-.62s.93-1.03.93-1.86-.31-1.45-.93-1.86-1.49-.62-2.61-.62h-4.54v11.91h0Z"/>
          <path class="st0" d="M109.67,37.87c-1.18,0-2.28-.2-3.29-.6-1.01-.4-1.89-.96-2.62-1.67-.74-.72-1.31-1.55-1.73-2.51-.41-.96-.62-2.01-.62-3.15s.21-2.18.62-3.15c.41-.96.99-1.8,1.73-2.51.74-.72,1.61-1.27,2.61-1.67s2.1-.6,3.3-.6,2.27.2,3.27.59c1,.39,1.87.94,2.61,1.66.75.72,1.32,1.55,1.73,2.51.41.96.61,2.01.61,3.17s-.2,2.21-.61,3.17c-.41.96-.98,1.8-1.73,2.51-.75.72-1.62,1.27-2.61,1.66s-2.09.59-3.27.59ZM109.67,35.9c.86,0,1.65-.15,2.38-.44s1.37-.71,1.9-1.25.96-1.17,1.26-1.89c.3-.72.45-1.51.45-2.37s-.15-1.65-.45-2.37-.72-1.35-1.26-1.89c-.54-.54-1.17-.96-1.9-1.25-.73-.29-1.52-.44-2.38-.44s-1.67.15-2.4.44c-.73.3-1.37.71-1.92,1.25-.55.54-.97,1.17-1.27,1.89-.3.72-.45,1.51-.45,2.37s.15,1.65.45,2.37.73,1.35,1.27,1.89c.55.54,1.18.96,1.92,1.25.73.3,1.53.44,2.4.44Z"/>
          <path class="st0" d="M121.81,37.69v-15.5h6.05c2.01,0,3.59.48,4.74,1.43s1.73,2.28,1.73,3.97c0,1.12-.26,2.09-.78,2.89-.52.8-1.26,1.42-2.21,1.85-.96.43-2.12.64-3.48.64h-4.83l1-1.02v5.74h-2.22ZM124.02,32.18l-1-1.09h4.76c1.42,0,2.49-.31,3.22-.92.73-.61,1.1-1.47,1.1-2.58s-.37-1.96-1.1-2.57-1.8-.91-3.22-.91h-4.76l1-1.11v9.17ZM132.17,37.69l-3.94-5.63h2.37l3.99,5.63h-2.41Z"/>
          <path class="st0" d="M144.86,37.87c-2.04,0-3.64-.58-4.81-1.75-1.17-1.17-1.75-2.87-1.75-5.12v-8.81h2.21v8.73c0,1.73.38,2.99,1.14,3.79s1.83,1.2,3.22,1.2,2.48-.4,3.24-1.2c.76-.8,1.14-2.06,1.14-3.79v-8.73h2.15v8.81c0,2.24-.58,3.95-1.74,5.12-1.16,1.17-2.76,1.75-4.82,1.75h0Z"/>
        </g>
      </g>
    </g>
  </g>
  <polygon class="st0" points="76.9 39.35 76.9 52.44 31.63 52.44 31.63 7.18 76.9 7.18 76.9 20.27 80.95 20.27 80.95 3.13 27.59 3.13 27.59 56.49 80.95 56.49 80.95 39.35 76.9 39.35"/>
</svg>