<?xml version="1.0" encoding="UTF-8"?>
<svg id="katman_1" xmlns="http://www.w3.org/2000/svg" version="1.1" viewBox="0 0 179 59.62">
  <!-- Generator: Adobe Illustrator 30.1.0, SVG Export Plug-In . SVG Version: 2.1.1 Build 136)  -->
  <defs>
    <style>
      .st0 {
        fill: #062038;
      }

      .st1 {
        isolation: isolate;
      }
    </style>
  </defs>
  <g>
    <polyline class="st0" points="73.24 31.1 68.14 22.04 64.15 22.04 64.15 37.73 68.21 37.73 68.21 29.64 72.19 36.18 74.14 36.18 78.12 29.45 78.12 37.73 78.18 37.73 78.18 37.73 82.22 37.73 82.22 37.73 82.22 37.73 82.22 22.04 78.12 22.04"/>
    <path class="st0" d="M46.34,29.65c-.09-.04-.19-.07-.28-.11.62-.33,1.11-.76,1.47-1.28.42-.6.63-1.31.63-2.12,0-1.23-.5-2.21-1.51-2.97s-2.53-1.13-4.57-1.13h-7.95v15.68h8.39c2.09,0,3.68-.38,4.76-1.13,1.09-.75,1.63-1.81,1.63-3.17,0-.91-.23-1.68-.68-2.32-.45-.64-1.09-1.12-1.9-1.46h0ZM38.48,25.25h3.02c.74,0,1.3.12,1.67.37s.56.62.56,1.13-.19.89-.56,1.14c-.37.25-.93.38-1.67.38h-3.02v-3.03ZM43.88,34.13c-.39.26-.97.39-1.72.39h-3.69v-3.18h3.69c.75,0,1.33.13,1.72.39.39.26.59.66.59,1.2s-.2.94-.59,1.2h0Z"/>
    <polygon class="st0" points="49.02 25.56 53.8 25.56 53.8 37.73 58.2 37.73 58.2 25.56 62.95 25.56 62.95 22.04 49.02 22.04 49.02 25.56"/>
  </g>
  <g class="st1">
    <g class="st1">
      <g class="st1">
        <g class="st1">
          <path class="st0" d="M86.67,37.73v-15.57h6.98c1.79,0,3.17.36,4.14,1.08.96.72,1.45,1.7,1.45,2.95,0,.85-.19,1.56-.57,2.14s-.89,1.02-1.52,1.33c-.64.31-1.33.47-2.07.47l.4-.67c.89,0,1.68.16,2.36.47.68.31,1.22.77,1.62,1.37.4.6.6,1.35.6,2.24,0,1.33-.5,2.37-1.5,3.1s-2.49,1.1-4.46,1.1h-7.43ZM88.9,35.92h5.12c1.23,0,2.17-.21,2.82-.62.65-.42.98-1.07.98-1.96s-.33-1.56-.98-1.98c-.65-.42-1.59-.62-2.82-.62h-5.32v-1.8h4.76c1.13,0,2-.21,2.62-.62s.93-1.04.93-1.87-.31-1.45-.93-1.87-1.5-.62-2.62-.62h-4.56v11.97h0Z"/>
          <path class="st0" d="M111.07,37.9c-1.19,0-2.29-.2-3.3-.6-1.02-.4-1.89-.96-2.64-1.68-.74-.72-1.32-1.56-1.74-2.53-.42-.96-.62-2.02-.62-3.16s.21-2.19.62-3.16c.42-.96.99-1.81,1.74-2.53.74-.72,1.62-1.28,2.62-1.68s2.11-.6,3.31-.6,2.28.2,3.28.59c1,.39,1.88.95,2.62,1.67.75.72,1.33,1.56,1.74,2.53.41.96.61,2.02.61,3.18s-.2,2.22-.61,3.18c-.41.96-.99,1.81-1.74,2.53-.75.72-1.62,1.28-2.62,1.67s-2.1.59-3.28.59ZM111.07,35.92c.86,0,1.66-.15,2.39-.44.73-.3,1.37-.72,1.91-1.26.54-.54.96-1.17,1.27-1.9.3-.73.46-1.52.46-2.38s-.15-1.65-.46-2.38-.73-1.36-1.27-1.9c-.54-.54-1.18-.96-1.91-1.26-.73-.3-1.53-.44-2.39-.44s-1.68.15-2.41.44c-.73.3-1.38.72-1.92,1.26-.55.54-.98,1.18-1.28,1.9-.3.73-.46,1.52-.46,2.38s.15,1.65.46,2.38.73,1.36,1.28,1.9c.55.54,1.19.96,1.92,1.26.73.3,1.54.44,2.41.44Z"/>
          <path class="st0" d="M126.35,37.73v-5.96l.51,1.38-6.7-10.99h2.38l5.63,9.28h-1.29l5.65-9.28h2.2l-6.67,10.99.49-1.38v5.96h-2.2,0Z"/>
          <path class="st0" d="M134.05,37.73l7.05-15.57h2.2l7.07,15.57h-2.34l-6.3-14.33h.89l-6.3,14.33h-2.29,0ZM137.05,33.83l.6-1.78h8.76l.65,1.78h-10.01Z"/>
        </g>
      </g>
    </g>
  </g>
  <polygon class="st0" points="78.16 39.39 78.16 52.54 32.69 52.54 32.69 7.08 78.16 7.08 78.16 20.23 82.22 20.23 82.22 3.01 28.62 3.01 28.62 56.61 82.22 56.61 82.22 39.39 78.16 39.39"/>
</svg>