<?xml version="1.0" encoding="UTF-8"?>
<svg id="katman_1" xmlns="http://www.w3.org/2000/svg" version="1.1" viewBox="0 0 179 59.62">
  <!-- Generator: Adobe Illustrator 30.1.0, SVG Export Plug-In . SVG Version: 2.1.1 Build 136)  -->
  <defs>
    <style>
      .st0 {
        fill: #062038;
      }

      .st1 {
        isolation: isolate;
      }
    </style>
  </defs>
  <g>
    <polyline class="st0" points="52.08 31.39 47.22 22.75 43.41 22.75 43.41 37.71 47.28 37.71 47.28 29.99 51.07 36.23 52.94 36.23 56.73 29.81 56.73 37.71 56.79 37.71 56.79 37.71 60.64 37.71 60.64 37.71 60.64 37.71 60.64 22.75 56.73 22.75"/>
    <path class="st0" d="M26.43,30c-.09-.04-.18-.07-.27-.1.59-.32,1.06-.72,1.4-1.22.4-.58.6-1.25.6-2.02,0-1.17-.48-2.11-1.44-2.83s-2.41-1.08-4.36-1.08h-7.58v14.96h8c1.99,0,3.5-.36,4.54-1.08,1.04-.72,1.56-1.73,1.56-3.02,0-.87-.22-1.61-.65-2.21-.43-.61-1.03-1.07-1.81-1.39h0ZM18.93,25.81h2.88c.71,0,1.24.12,1.59.35.35.24.53.6.53,1.08s-.18.85-.53,1.09c-.35.24-.88.36-1.59.36h-2.88v-2.88h0ZM24.09,34.28c-.37.25-.92.37-1.64.37h-3.52v-3.03h3.52c.72,0,1.27.13,1.64.37.37.25.56.63.56,1.14s-.19.89-.56,1.14h0Z"/>
    <polygon class="st0" points="28.99 26.1 33.54 26.1 33.54 37.71 37.73 37.71 37.73 26.1 42.26 26.1 42.26 22.75 28.99 22.75 28.99 26.1"/>
  </g>
  <g class="st1">
    <g class="st1">
      <g class="st1">
        <g class="st1">
          <path class="st0" d="M64.54,37.71v-14.85h6.66c1.71,0,3.03.34,3.95,1.03.92.69,1.38,1.62,1.38,2.81,0,.81-.18,1.48-.54,2.04s-.84.98-1.45,1.27-1.27.45-1.97.45l.38-.64c.85,0,1.6.15,2.25.45s1.17.73,1.55,1.3c.38.57.57,1.28.57,2.13,0,1.27-.48,2.26-1.43,2.96-.95.7-2.37,1.05-4.25,1.05h-7.09ZM66.67,35.99h4.88c1.17,0,2.07-.2,2.69-.59s.93-1.02.93-1.87-.31-1.49-.93-1.89c-.62-.4-1.52-.59-2.69-.59h-5.07v-1.72h4.54c1.07,0,1.91-.2,2.5-.59s.89-.99.89-1.78-.3-1.39-.89-1.78c-.59-.4-1.43-.59-2.5-.59h-4.35v11.41h0Z"/>
          <path class="st0" d="M81.11,37.71v-14.85h10.48v1.85h-8.36v11.16h8.65v1.85h-10.78ZM83.04,31.07v-1.8h7.64v1.8h-7.64Z"/>
          <path class="st0" d="M95.83,37.71v-14.85h1.74l9.82,12.2h-.91v-12.2h2.12v14.85h-1.74l-9.82-12.2h.91v12.2h-2.12,0Z"/>
          <path class="st0" d="M113.56,37.71v-14.85h10.48v1.85h-8.36v11.16h8.65v1.85h-10.78ZM115.49,31.07v-1.8h7.64v1.8h-7.64Z"/>
          <path class="st0" d="M128.28,37.71v-14.85h2.12v13h8.04v1.85h-10.16Z"/>
          <path class="st0" d="M147.29,37.88c-1.95,0-3.49-.56-4.6-1.68-1.12-1.12-1.68-2.75-1.68-4.9v-8.44h2.12v8.36c0,1.65.36,2.86,1.09,3.63s1.76,1.15,3.09,1.15,2.38-.38,3.11-1.15c.73-.76,1.09-1.97,1.09-3.63v-8.36h2.06v8.44c0,2.15-.56,3.78-1.67,4.9-1.11,1.12-2.65,1.68-4.61,1.68h0Z"/>
          <path class="st0" d="M156.26,37.71l6.17-8.42v1.63l-5.83-8.06h2.42l4.62,6.34-.95.02,4.6-6.36h2.31l-5.79,7.93v-1.53l6.17,8.44h-2.44l-4.92-6.77h.93l-4.86,6.77h-2.44,0Z"/>
        </g>
      </g>
    </g>
  </g>
  <polygon class="st0" points="56.77 39.29 56.77 51.84 13.41 51.84 13.41 8.48 56.77 8.48 56.77 21.02 60.64 21.02 60.64 4.6 9.53 4.6 9.53 55.71 60.64 55.71 60.64 39.29 56.77 39.29"/>
</svg>