<?xml version="1.0" encoding="UTF-8"?>
<svg id="katman_1" xmlns="http://www.w3.org/2000/svg" version="1.1" viewBox="0 0 179 59.62">
  <!-- Generator: Adobe Illustrator 30.1.0, SVG Export Plug-In . SVG Version: 2.1.1 Build 136)  -->
  <defs>
    <style>
      .st0 {
        fill: #062038;
      }

      .st1 {
        isolation: isolate;
      }
    </style>
  </defs>
  <g>
    <polyline class="st0" points="65.3 31.09 60.03 21.57 55.91 21.57 55.91 38.05 60.11 38.05 60.11 29.55 64.22 36.43 66.24 36.43 70.34 29.36 70.34 38.05 70.41 38.05 70.41 38.05 74.59 38.05 74.59 38.05 74.59 38.05 74.59 21.57 70.34 21.57"/>
    <path class="st0" d="M37.5,29.56c-.1-.04-.19-.08-.29-.11.64-.35,1.15-.8,1.52-1.35.44-.64.65-1.38.65-2.22,0-1.29-.52-2.33-1.56-3.12s-2.62-1.19-4.73-1.19h-8.22v16.48h8.68c2.16,0,3.8-.4,4.92-1.19,1.13-.79,1.69-1.9,1.69-3.33,0-.96-.23-1.77-.7-2.44-.47-.67-1.12-1.18-1.96-1.53h0ZM29.38,24.94h3.12c.76,0,1.34.13,1.72.39s.57.66.57,1.19-.19.93-.57,1.2c-.38.27-.96.4-1.72.4h-3.12v-3.18ZM34.97,34.27c-.41.27-1,.41-1.78.41h-3.81v-3.34h3.81c.78,0,1.37.14,1.78.41.41.27.61.69.61,1.26s-.2.98-.61,1.26h0Z"/>
    <polygon class="st0" points="40.28 25.27 45.21 25.27 45.21 38.05 49.76 38.05 49.76 25.27 54.67 25.27 54.67 21.57 40.28 21.57 40.28 25.27"/>
  </g>
  <g class="st1">
    <g class="st1">
      <g class="st1">
        <g class="st1">
          <path class="st0" d="M78.84,38.09v-16.36h2.3v16.36h-2.3Z"/>
          <path class="st0" d="M86.52,38.09v-16.36h7.22c1.85,0,3.28.38,4.28,1.13,1,.76,1.49,1.79,1.49,3.1,0,.89-.2,1.64-.59,2.24s-.92,1.08-1.57,1.4c-.66.33-1.37.49-2.14.49l.41-.7c.92,0,1.73.16,2.44.49.7.33,1.26.81,1.68,1.44.41.63.62,1.41.62,2.35,0,1.4-.52,2.49-1.55,3.26s-2.57,1.16-4.61,1.16h-7.68ZM88.82,36.2h5.29c1.27,0,2.25-.22,2.92-.65.67-.44,1.01-1.12,1.01-2.06s-.34-1.64-1.01-2.08c-.67-.44-1.65-.65-2.92-.65h-5.49v-1.89h4.92c1.16,0,2.07-.22,2.71-.65s.97-1.09.97-1.96-.32-1.53-.97-1.96-1.55-.65-2.71-.65h-4.71v12.57h0Z"/>
          <path class="st0" d="M104.47,38.09v-16.36h11.36v2.03h-9.06v12.29h9.38v2.03h-11.68ZM106.56,30.78v-1.99h8.28v1.99h-8.28Z"/>
          <path class="st0" d="M120.43,38.09v-16.36h6.28c2.08,0,3.72.5,4.92,1.51,1.2,1,1.79,2.4,1.79,4.19,0,1.18-.27,2.2-.8,3.05-.54.85-1.3,1.5-2.3,1.95-1,.45-2.2.68-3.61.68h-5.01l1.04-1.08v6.05h-2.3ZM122.73,32.27l-1.04-1.15h4.94c1.47,0,2.59-.32,3.35-.97s1.14-1.55,1.14-2.72-.38-2.07-1.14-2.71-1.87-.96-3.35-.96h-4.94l1.04-1.17v9.67ZM131.19,38.09l-4.09-5.94h2.46l4.14,5.94h-2.51Z"/>
          <path class="st0" d="M137.69,38.09v-16.36h2.3v16.36h-2.3Z"/>
          <path class="st0" d="M142.93,38.09l7.29-16.36h2.28l7.31,16.36h-2.41l-6.51-15.05h.92l-6.51,15.05h-2.37ZM146.04,34l.62-1.87h9.06l.67,1.87h-10.34Z"/>
        </g>
      </g>
    </g>
  </g>
  <polygon class="st0" points="70.39 39.88 70.39 53.69 23.4 53.69 23.4 5.93 70.39 5.93 70.39 19.75 74.59 19.75 74.59 1.66 19.19 1.66 19.19 57.97 74.59 57.97 74.59 39.88 70.39 39.88"/>
</svg>