<?xml version="1.0" encoding="UTF-8"?>
<svg id="katman_1" xmlns="http://www.w3.org/2000/svg" version="1.1" viewBox="0 0 179 59.62">
  <!-- Generator: Adobe Illustrator 30.1.0, SVG Export Plug-In . SVG Version: 2.1.1 Build 136)  -->
  <defs>
    <style>
      .st0 {
        fill: #062038;
      }

      .st1 {
        isolation: isolate;
      }
    </style>
  </defs>
  <g>
    <polyline class="st0" points="61.43 31.04 56.3 21.92 52.28 21.92 52.28 37.7 56.37 37.7 56.37 29.56 60.37 36.15 62.34 36.15 66.34 29.37 66.34 37.7 66.4 37.7 66.4 37.7 70.47 37.7 70.47 37.7 70.47 37.7 70.47 21.92 66.34 21.92"/>
    <path class="st0" d="M34.37,29.57c-.09-.04-.19-.07-.29-.11.62-.34,1.12-.76,1.48-1.29.42-.61.64-1.32.64-2.13,0-1.23-.51-2.23-1.52-2.99s-2.55-1.14-4.6-1.14h-8v15.78h8.44c2.1,0,3.7-.38,4.79-1.14,1.1-.76,1.64-1.82,1.64-3.19,0-.92-.23-1.69-.68-2.33-.45-.64-1.09-1.13-1.91-1.46h0ZM26.46,25.14h3.04c.74,0,1.3.12,1.68.37s.56.63.56,1.14-.19.89-.56,1.15c-.37.26-.93.38-1.68.38h-3.04v-3.04ZM31.9,34.08c-.39.26-.97.39-1.73.39h-3.71v-3.2h3.71c.76,0,1.34.13,1.73.39.39.26.59.67.59,1.21s-.2.94-.59,1.21h0Z"/>
    <polygon class="st0" points="37.07 25.46 41.87 25.46 41.87 37.7 46.3 37.7 46.3 25.46 51.08 25.46 51.08 21.92 37.07 21.92 37.07 25.46"/>
  </g>
  <g class="st1">
    <g class="st1">
      <g class="st1">
        <g class="st1">
          <path class="st0" d="M79.83,37.7v-13.72h-5.37v-1.95h12.96v1.95h-5.37v13.72h-2.22,0Z"/>
          <path class="st0" d="M90.4,37.7v-15.67h11.05v1.95h-8.82v11.77h9.13v1.95h-11.37ZM92.43,30.7v-1.9h8.06v1.9h-8.06Z"/>
          <path class="st0" d="M105.93,37.7v-15.67h2.24v15.67h-2.24ZM107.9,33.92l-.11-2.73,8.88-9.15h2.55l-6.87,7.25-1.25,1.39-3.2,3.25ZM117.03,37.7l-6.42-7.47,1.5-1.66,7.54,9.13h-2.62Z"/>
          <path class="st0" d="M122.56,37.7v-15.67h1.83l10.36,12.87h-.96v-12.87h2.24v15.67h-1.83l-10.36-12.87h.96v12.87h-2.24Z"/>
          <path class="st0" d="M142.38,20.36c-.37,0-.69-.13-.94-.38-.25-.25-.38-.57-.38-.94s.13-.69.38-.94c.25-.25.57-.38.94-.38s.69.13.94.38c.25.25.38.57.38.94s-.13.69-.38.94c-.25.25-.57.38-.94.38ZM141.26,37.7v-15.67h2.24v15.67h-2.24Z"/>
          <path class="st0" d="M148.74,37.7v-15.67h2.24v15.67h-2.24ZM150.71,33.92l-.11-2.73,8.88-9.15h2.55l-6.87,7.25-1.25,1.39-3.2,3.25ZM159.84,37.7l-6.42-7.47,1.5-1.66,7.54,9.13h-2.62Z"/>
        </g>
      </g>
    </g>
  </g>
  <polygon class="st0" points="66.38 39.45 66.38 52.68 20.63 52.68 20.63 6.94 66.38 6.94 66.38 20.17 70.47 20.17 70.47 2.85 16.54 2.85 16.54 56.77 70.47 56.77 70.47 39.45 66.38 39.45"/>
</svg>