<?xml version="1.0" encoding="UTF-8"?>
<svg id="katman_1" xmlns="http://www.w3.org/2000/svg" version="1.1" viewBox="0 0 75 75">
  <!-- Generator: Adobe Illustrator 30.1.0, SVG Export Plug-In . SVG Version: 2.1.1 Build 136)  -->
  <defs>
    <style>
      .st0 {
        fill: #132137;
      }
    </style>
  </defs>
  <g>
    <path class="st0" d="M23.13,51.7c-.31,0-.59-.05-.85-.15-.26-.1-.49-.24-.68-.42-.19-.18-.34-.39-.45-.63-.11-.24-.16-.51-.16-.8s.05-.56.16-.8c.11-.24.26-.45.45-.63.19-.18.42-.32.68-.42.26-.1.55-.15.86-.15s.61.05.87.15.49.25.67.45l-.36.35c-.16-.16-.34-.27-.54-.34-.19-.07-.4-.11-.63-.11s-.44.04-.64.11c-.2.07-.37.18-.51.31-.14.13-.25.29-.33.48-.08.18-.12.38-.12.6s.04.41.12.59c.08.18.19.34.33.48.14.14.31.24.51.31.2.07.41.11.64.11.21,0,.42-.03.62-.1.2-.07.38-.17.55-.33l.33.42c-.2.16-.43.29-.7.37-.27.08-.54.13-.82.13ZM24.65,51.21l-.55-.07v-1.45h.55v1.52Z"/>
    <path class="st0" d="M28.61,51.66v-3.9h1.57c.52,0,.93.12,1.23.36s.45.57.45,1c0,.28-.07.52-.2.73-.13.2-.33.36-.57.47-.25.11-.55.16-.9.16h-1.25l.26-.26v1.44h-.57ZM29.19,50.27l-.26-.27h1.23c.37,0,.65-.08.83-.23.19-.15.28-.37.28-.65s-.09-.49-.28-.65c-.19-.15-.47-.23-.83-.23h-1.23l.26-.28v2.31ZM31.3,51.66l-1.02-1.42h.61l1.03,1.42h-.63Z"/>
    <path class="st0" d="M37.47,51.7c-.31,0-.59-.05-.85-.15-.26-.1-.49-.24-.68-.42-.19-.18-.34-.39-.45-.63-.11-.24-.16-.51-.16-.79s.05-.55.16-.79c.11-.24.26-.45.45-.63.19-.18.42-.32.68-.42.26-.1.54-.15.85-.15s.59.05.85.15c.26.1.48.24.68.42.19.18.34.39.45.63.11.24.16.51.16.8s-.05.56-.16.8c-.11.24-.25.45-.45.63-.19.18-.42.32-.68.42-.26.1-.54.15-.85.15ZM37.47,51.21c.22,0,.43-.04.62-.11.19-.07.35-.18.49-.31.14-.14.25-.29.33-.48.08-.18.12-.38.12-.6s-.04-.41-.12-.6c-.08-.18-.19-.34-.33-.48-.14-.14-.3-.24-.49-.32-.19-.07-.39-.11-.62-.11s-.43.04-.62.11c-.19.07-.35.18-.5.32-.14.14-.25.29-.33.48-.08.18-.12.38-.12.6s.04.41.12.6c.08.18.19.34.33.48.14.14.31.24.5.31.19.07.4.11.62.11Z"/>
    <path class="st0" d="M45,51.7c-.53,0-.94-.15-1.24-.44-.3-.29-.45-.72-.45-1.29v-2.22h.57v2.2c0,.43.1.75.3.95.2.2.48.3.83.3s.64-.1.84-.3c.2-.2.3-.52.3-.95v-2.2h.56v2.22c0,.56-.15.99-.45,1.29-.3.29-.72.44-1.25.44Z"/>
    <path class="st0" d="M50.74,51.66v-3.9h1.57c.35,0,.65.05.9.16s.44.26.57.47c.13.2.2.45.2.73s-.07.52-.2.73c-.13.2-.33.36-.57.47s-.55.16-.9.16h-1.25l.26-.26v1.44h-.57ZM51.32,50.27l-.26-.28h1.23c.37,0,.65-.08.83-.23.19-.15.28-.37.28-.65s-.09-.49-.28-.65c-.19-.15-.47-.23-.83-.23h-1.23l.26-.28v2.31Z"/>
  </g>
  <g>
    <polygon class="st0" points="62 38.32 62 61.31 13 61.31 13 13.69 62 13.69 62 20.82 66.38 20.82 66.38 9.43 8.62 9.43 8.62 65.57 66.38 65.57 66.38 38.32 62 38.32"/>
    <g>
      <polyline class="st0" points="56.8 30.83 51.36 21.44 47.1 21.44 47.1 37.7 51.43 37.7 51.43 29.31 55.67 36.1 57.76 36.1 62 29.12 62 37.7 62.07 37.7 62.07 37.7 66.38 37.7 66.38 37.7 66.38 37.7 66.38 21.44 62 21.44"/>
      <path class="st0" d="M28.1,29.33c-.1-.04-.2-.08-.3-.11.66-.34,1.18-.79,1.57-1.33.45-.63.68-1.36.68-2.2,0-1.27-.54-2.3-1.61-3.08-1.07-.78-2.7-1.17-4.88-1.17h-8.48v16.26h8.95c2.23,0,3.92-.39,5.08-1.17,1.16-.78,1.74-1.88,1.74-3.29,0-.94-.24-1.75-.72-2.4-.48-.66-1.16-1.16-2.03-1.51ZM19.72,24.76h3.22c.79,0,1.38.13,1.78.38.39.26.59.65.59,1.17s-.2.92-.59,1.18c-.39.26-.99.39-1.78.39h-3.22v-3.14ZM25.48,33.97c-.42.27-1.03.41-1.84.41h-3.93v-3.3h3.93c.81,0,1.42.14,1.84.41.42.27.63.69.63,1.24s-.21.97-.63,1.24Z"/>
      <polygon class="st0" points="30.97 25.09 36.06 25.09 36.06 37.7 40.75 37.7 40.75 25.09 45.82 25.09 45.82 21.44 30.97 21.44 30.97 25.09"/>
    </g>
  </g>
</svg>