<?xml version="1.0" encoding="UTF-8"?>
<svg id="katman_1" xmlns="http://www.w3.org/2000/svg" version="1.1" viewBox="0 0 179 59.62">
  <!-- Generator: Adobe Illustrator 30.1.0, SVG Export Plug-In . SVG Version: 2.1.1 Build 136)  -->
  <defs>
    <style>
      .st0 {
        fill: #062038;
      }

      .st1 {
        isolation: isolate;
      }
    </style>
  </defs>
  <g>
    <polyline class="st0" points="64.23 31.02 59.18 22.04 55.23 22.04 55.23 37.58 59.25 37.58 59.25 29.57 63.19 36.05 65.13 36.05 69.07 29.38 69.07 37.58 69.13 37.58 69.13 37.58 73.14 37.58 73.14 37.58 73.14 37.58 73.14 22.04 69.07 22.04"/>
    <path class="st0" d="M37.58,29.58c-.09-.04-.19-.07-.28-.11.61-.33,1.1-.75,1.46-1.27.42-.6.63-1.3.63-2.1,0-1.21-.5-2.19-1.5-2.94s-2.51-1.12-4.53-1.12h-7.88v15.54h8.32c2.07,0,3.64-.37,4.72-1.12,1.08-.75,1.62-1.79,1.62-3.14,0-.9-.22-1.67-.67-2.3-.45-.63-1.08-1.11-1.88-1.44h0ZM29.79,25.22h2.99c.73,0,1.28.12,1.65.37s.55.62.55,1.12-.18.88-.55,1.13c-.37.25-.92.38-1.65.38h-2.99v-3ZM35.15,34.02c-.39.26-.96.39-1.71.39h-3.65v-3.15h3.65c.75,0,1.32.13,1.71.39.39.26.58.66.58,1.19s-.19.93-.58,1.19h0Z"/>
    <polygon class="st0" points="40.24 25.53 44.97 25.53 44.97 37.58 49.33 37.58 49.33 25.53 54.04 25.53 54.04 22.04 40.24 22.04 40.24 25.53"/>
  </g>
  <g class="st1">
    <g class="st1">
      <g class="st1">
        <g class="st1">
          <path class="st0" d="M85.47,37.71c-1.19,0-2.29-.19-3.28-.58-1-.39-1.87-.94-2.6-1.65-.74-.71-1.31-1.55-1.72-2.5-.41-.95-.62-2.01-.62-3.15s.21-2.2.62-3.15c.41-.95.99-1.79,1.73-2.5.74-.71,1.61-1.26,2.61-1.65,1-.39,2.1-.58,3.31-.58s2.34.2,3.35.6c1.01.4,1.87.99,2.58,1.78l-1.37,1.37c-.63-.62-1.32-1.07-2.06-1.36s-1.55-.43-2.41-.43-1.7.15-2.46.44c-.76.29-1.41.7-1.96,1.23-.55.53-.98,1.16-1.28,1.88-.3.73-.45,1.52-.45,2.37s.15,1.62.45,2.35c.3.73.73,1.36,1.28,1.9s1.2.95,1.95,1.25c.75.29,1.56.44,2.45.44.82,0,1.61-.13,2.37-.39.76-.26,1.46-.69,2.11-1.29l1.26,1.68c-.76.65-1.66,1.13-2.68,1.47-1.02.33-2.08.5-3.16.5h0s0,0,0,0h0ZM91.31,35.75l-2.12-.29v-5.73h2.12v6.02Z"/>
          <path class="st0" d="M95.28,37.54v-15.43h6.02c2,0,3.57.47,4.72,1.42s1.72,2.27,1.72,3.96c0,1.12-.26,2.08-.77,2.88-.52.8-1.25,1.41-2.2,1.84-.96.43-2.11.64-3.46.64h-4.8l.99-1.01v5.71h-2.21ZM97.48,32.05l-.99-1.08h4.74c1.41,0,2.48-.3,3.21-.91s1.09-1.47,1.09-2.57-.36-1.95-1.09-2.56-1.8-.9-3.21-.9h-4.74l.99-1.1v9.12ZM105.59,37.54l-3.92-5.6h2.36l3.97,5.6h-2.4Z"/>
          <path class="st0" d="M118.02,37.71c-1.18,0-2.27-.2-3.27-.6-1.01-.4-1.88-.95-2.61-1.66-.74-.71-1.31-1.55-1.72-2.5-.41-.95-.62-2-.62-3.13s.21-2.17.62-3.13c.41-.95.98-1.79,1.72-2.5.73-.71,1.6-1.27,2.6-1.66s2.09-.6,3.28-.6,2.26.19,3.25.58c.99.39,1.86.94,2.6,1.65.74.71,1.31,1.55,1.72,2.5.4.96.61,2.01.61,3.15s-.2,2.2-.61,3.15c-.4.96-.98,1.79-1.72,2.5-.74.71-1.61,1.26-2.6,1.65s-2.08.58-3.25.58h0ZM118.02,35.75c.85,0,1.64-.15,2.37-.44.73-.29,1.36-.71,1.9-1.25.54-.54.95-1.16,1.26-1.88.3-.72.45-1.51.45-2.36s-.15-1.64-.45-2.36-.72-1.35-1.26-1.88c-.54-.54-1.17-.95-1.9-1.25-.73-.29-1.52-.44-2.37-.44s-1.66.15-2.39.44c-.73.29-1.36.71-1.91,1.25-.54.54-.97,1.17-1.27,1.88-.3.72-.45,1.51-.45,2.36s.15,1.64.45,2.36.72,1.35,1.27,1.88c.54.54,1.18.95,1.91,1.25.73.29,1.52.44,2.39.44Z"/>
          <path class="st0" d="M135.72,37.71c-2.03,0-3.62-.58-4.78-1.74-1.16-1.16-1.74-2.86-1.74-5.09v-8.77h2.2v8.68c0,1.72.38,2.98,1.13,3.77.76.79,1.83,1.19,3.21,1.19s2.47-.4,3.23-1.19c.76-.79,1.13-2.05,1.13-3.77v-8.68h2.14v8.77c0,2.23-.58,3.93-1.73,5.09-1.15,1.16-2.75,1.74-4.79,1.74h0Z"/>
          <path class="st0" d="M146.52,37.54v-15.43h6.02c1.35,0,2.5.21,3.46.64.95.43,1.69,1.04,2.2,1.85.51.81.77,1.77.77,2.89s-.26,2.08-.77,2.88c-.52.8-1.25,1.42-2.2,1.85-.96.43-2.11.65-3.46.65h-4.8l.99-1.04v5.71h-2.2ZM148.72,32.05l-.99-1.1h4.74c1.41,0,2.48-.3,3.21-.9s1.09-1.45,1.09-2.56-.36-1.95-1.09-2.56-1.8-.9-3.21-.9h-4.74l.99-1.1v9.12Z"/>
        </g>
      </g>
    </g>
  </g>
  <polygon class="st0" points="69.11 39.3 69.11 52.34 24.06 52.34 24.06 7.29 69.11 7.29 69.11 20.32 73.14 20.32 73.14 3.26 20.03 3.26 20.03 56.36 73.14 56.36 73.14 39.3 69.11 39.3"/>
</svg>